<?xml version="1.0" encoding="UTF-8"?><svg id="_x30_2" xmlns="http://www.w3.org/2000/svg" viewBox="0 0 1000 1000"><circle cx="500" cy="500" r="496.45273" style="fill:#f4f4f4;"/><g id="logo"><polygon points="297.86943 459.62247 297.86943 190.09947 405.7297 190.09947 405.7297 210.79637 322.73705 210.79637 322.73705 438.87432 405.7297 438.87432 405.7297 459.57122 297.86943 459.57122 297.86943 459.62247"/><polygon points="712.12179 190.09914 712.12179 459.62215 604.26151 459.62215 604.26151 438.92525 687.25414 438.92525 687.25414 210.8473 604.26151 210.8473 604.26151 190.09914 712.12179 190.09914"/><polygon points="492.18055 389.39387 492.23179 342.86331 456.9901 368.23859 444.58141 346.62592 485.72189 326.48796 444.58141 306.09565 457.04037 284.78857 492.23179 310.1136 492.18055 263.43024 517.40402 263.43024 517.35276 310.1136 552.74727 284.8901 565.30775 306.09565 524.01449 326.48796 565.30775 346.62592 552.69601 368.34014 517.35276 342.86331 517.40402 389.39387 492.18055 389.39387"/></g><path d="M203.31032,825.87011h-9.27226c-13.12531-14.98769-19.68621-33.46807-19.68621-55.44114,0-22.05704,6.5609-40.8348,19.68621-56.32977h9.39937c-13.2944,16.08973-19.9416,34.82316-19.9416,56.20266,0,21.21156,6.60522,39.73393,19.81449,55.56826"/><path d="M259.46201,706.58226c-8.58422,46.04061-23.67103,82.19787-42.00914,104.56745-1.69095-1.69095-4.55158-4.03147-6.76265-5.46236,18.33811-20.41973,33.55436-56.70644,41.74907-103.52721l7.02271,4.42213Z"/><path d="M372.87128,759.69642c0,4.3615-.56093,8.54224-1.68278,12.54339-1.12187,3.99998-2.69852,7.7469-4.73118,11.23959-2.03264,3.49269-4.47693,6.66819-7.33408,9.52532-2.85828,2.85946-6.03379,5.30377-9.52648,7.33524-3.49271,2.03381-7.25012,3.61048-11.27225,4.73118-4.0233,1.12186-8.19239,1.68396-12.51073,1.68396-4.3615,0-8.54225-.5621-12.54222-1.68396-4.00115-1.1207-7.74807-2.69737-11.24077-4.73118-3.49385-2.03147-6.67985-4.47578-9.55797-7.33524-2.87928-2.85713-5.34574-6.03263-7.3982-9.52532-2.05364-3.49269-3.64197-7.25011-4.76383-11.27108-1.12186-4.02214-1.68162-8.19355-1.68162-12.5119s.55976-8.48742,1.68162-12.51073c1.12187-4.02214,2.7102-7.77955,4.76383-11.27225,2.05246-3.49269,4.51892-6.66819,7.3982-9.52649,2.87812-2.85713,6.06413-5.31193,9.55797-7.36557,3.49271-2.05364,7.24895-3.64197,11.27225-4.76266,4.02097-1.12186,8.19239-1.68396,12.51074-1.68396s8.48742.5621,12.51073,1.68396c4.02213,1.12069,7.77954,2.70902,11.27225,4.76266,3.49269,2.05364,6.66819,4.50844,9.52648,7.36557,2.85714,2.85829,5.30144,6.0338,7.33408,9.52649,2.03266,3.4927,3.60931,7.25012,4.73118,11.27225,1.12185,4.0233,1.68278,8.19238,1.68278,12.51073M325.81378,720.44996c-3.64197,0-7.13467.46647-10.47926,1.39708-3.34459.93177-6.46761,2.24372-9.36672,3.93701-2.90028,1.69445-5.54633,3.73642-7.93816,6.12825-2.39182,2.39183-4.44546,5.03904-6.15974,7.93816-1.71428,2.90144-3.03906,6.0233-3.96965,9.36789-.93178,3.34459-1.39708,6.83729-1.39708,10.47808h39.31061v-39.24647Z"/><path d="M471.8951,732.72395c-5.33178,37.84706-20.9387,63.20904-54.62483,78.94541-1.16968-1.68979-3.64197-4.29153-5.46237-5.72242,31.99518-14.5667,46.95139-38.36717,50.984-69.71047h-60.8685v28.22145h-7.80287v-35.50538h78.24452l-.46995,3.7714Z"/><path d="M586.34553,759.69642c0,4.3615-.56095,8.54224-1.68278,12.54339-1.12187,3.99998-2.69852,7.7469-4.73118,11.23959s-4.47693,6.66819-7.33408,9.52532c-2.85828,2.85946-6.0338,5.30377-9.52649,7.33524-3.49269,2.03381-7.25012,3.61048-11.27223,4.73118-4.02332,1.12186-8.19241,1.68396-12.51073,1.68396-4.36152,0-8.54225-.5621-12.54222-1.68396-4.00115-1.1207-7.74808-2.69737-11.24077-4.73118-3.49386-2.03147-6.67985-4.47578-9.55799-7.33524-2.87928-2.85713-5.34573-6.03263-7.39821-9.52532-2.05362-3.49269-3.64195-7.25011-4.76382-11.27108-1.12187-4.02214-1.68161-8.19355-1.68161-12.5119s.55974-8.48742,1.68161-12.51073c1.12187-4.02214,2.7102-7.77955,4.76382-11.27225,2.05248-3.49269,4.51893-6.66819,7.39821-9.52649,2.87814-2.85713,6.06413-5.31193,9.55799-7.36557,3.49269-2.05364,7.24895-3.64197,11.27223-4.76266,4.02097-1.12186,8.19241-1.68396,12.51076-1.68396s8.48741.5621,12.51073,1.68396c4.02211,1.12069,7.77954,2.70902,11.27223,4.76266,3.49269,2.05364,6.66821,4.50844,9.52649,7.36557,2.85714,2.85829,5.30142,6.0338,7.33408,9.52649,2.03266,3.4927,3.60931,7.25012,4.73118,11.27225,1.12183,4.0233,1.68278,8.19238,1.68278,12.51073M539.28803,720.44996c-3.64198,0-7.13467.46647-10.47928,1.39708-3.34457.93177-6.4676,2.24372-9.3667,3.93701-2.90028,1.69445-5.54634,3.73642-7.93816,6.12825s-4.44547,5.03904-6.15975,7.93816c-1.71428,2.90144-3.03904,6.0233-3.96965,9.36789-.93179,3.34459-1.39708,6.83729-1.39708,10.47808h39.31062v-39.24647Z"/><path d="M606.03267,825.87011h-9.27228c13.20926-15.83433,19.81448-34.35669,19.81448-55.56826,0-21.37949-6.64718-40.11293-19.94161-56.20266h9.39941c13.20926,15.49498,19.81448,34.27273,19.81448,56.32977,0,21.97308-6.60522,40.45346-19.81448,55.44114"/><path d="M685.026,706.58226c-8.58424,46.04061-23.67103,82.19787-42.00915,104.56745-1.69097-1.69095-4.5516-4.03147-6.76266-5.46236,18.33812-20.41973,33.55555-56.70644,41.7491-103.52721l7.02271,4.42213Z"/><polygon points="772.48907 763.9268 750.64141 742.07914 759.16094 710.28324 790.95782 701.76274 814.23516 725.04008 806.23809 754.88481 799.47637 753.07231 806.42754 727.13188 788.86602 709.56938 764.87676 715.99809 758.44903 739.98734 777.43926 758.97758 772.48907 763.9268" style="fill:#333;"/><path d="M782.4378,790.23441c-14.51953,0-29.03955-5.52734-40.09375-16.58105-15.56055-15.56152-20.66748-38.54492-13.32373-59.13965l-88.7832-88.78418c-20.5957,7.34668-43.57812,2.23926-59.14062-13.32422-14.83545-14.83496-20.25488-36.53516-14.14355-56.63379l1.69775-5.58203,37.09229,37.09277,23.98926-6.42871,6.42822-23.98926-37.09326-37.09277,5.58301-1.69727c20.09521-6.1084,41.79785-.69336,56.63379,14.14355,15.56104,15.56152,20.66797,38.54492,13.32422,59.13965l90.38379,90.38477-4.9502,4.94922-93.62061-93.62109.86572-2.14648c7.47119-18.53027,3.17236-39.63086-10.95264-53.75684-11.56885-11.56836-27.90576-16.59766-43.77441-13.80273l31.4082,31.4082-8.52002,31.7959-31.79688,8.52051-31.40771-31.40723c-2.80225,15.87109,2.23389,32.20508,13.80273,43.77441,14.12549,14.12402,35.22461,18.42578,53.75684,10.95215l2.14648-.86523,95.25781,95.25781-.86572,2.14648c-7.47119,18.53027-3.17236,39.63086,10.95264,53.75684,19.37842,19.37695,50.90918,19.37793,70.2876,0,19.37891-19.37891,19.37891-50.91016,0-70.28906l4.9502-4.94922c22.10791,22.10742,22.10791,58.08008,0,80.1875-11.0542,11.05371-25.57422,16.58105-40.09424,16.58105Z" style="fill:#333;"/><path d="M374.21953,590.63383h-32.91797l-16.45947-28.50781,16.45898-28.50879h32.91895l16.45898,28.50879-16.45947,28.50781ZM345.34258,583.63383h24.83594l12.41748-21.50781-12.41797-21.50879h-24.83496l-12.41797,21.50879,12.41748,21.50781Z" style="fill:#333;"/><path d="M388.65411,615.63481h-61.78711l-30.89355-53.50879,30.89355-53.50977h61.78711l30.89355,53.50977-30.89355,53.50879ZM330.90801,608.63481h53.70508l26.85156-46.50879-26.85205-46.50977h-53.7041l-26.85205,46.50977,26.85156,46.50879Z" style="fill:#333;"/><path d="M798.6087,354.41996h-32.34082l-16.17041-28.00781,16.17041-28.00879h32.34082l16.17041,28.00879-16.17041,28.00781ZM769.73174,348.41996h25.41309l12.70654-22.00781-12.70654-22.00879h-25.41309l-12.70654,22.00879,12.70654,22.00781Z" style="fill:#333;"/><polygon points="777.16807 335.54022 787.70836 335.54022 792.97851 326.41205 787.70836 317.28389 777.16806 317.28389 771.89792 326.41205 777.16807 335.54022" style="fill:#333;"/><polyline points="270.93968 389.39387 210.69022 389.39387 210.69022 562.12579 270.93968 562.12579" style="fill:none; stroke:#4d4d4d; stroke-miterlimit:10; stroke-width:5px;"/><polyline points="444.58141 562.12579 504.94458 562.12579 504.94458 459.62215" style="fill:none; stroke:#4d4d4d; stroke-miterlimit:10; stroke-width:5px;"/><polyline points="782.43821 276.54485 782.43821 240.22013 730.61246 240.22013" style="fill:none; stroke:#4d4d4d; stroke-miterlimit:10; stroke-width:5px;"/><polyline points="782.43821 376.27926 782.43821 412.60398 730.61246 412.60398" style="fill:none; stroke:#4d4d4d; stroke-miterlimit:10; stroke-width:5px;"/><g id="sparkles-left"><path d="M251.95627,295.75494c-1.21429,0-2.25128-.43461-3.10903-1.30574-.85781-.87113-1.28672-1.91383-1.28672-3.12999,0-1.21423.42891-2.24358,1.28672-3.08803.85775-.84445,1.89474-1.26762,3.10903-1.26762,1.24088,0,2.29694.42318,3.16807,1.26762s1.30574,1.87379,1.30574,3.08803c0,1.21615-.43461,2.25885-1.30574,3.12999s-1.9272,1.30574-3.16807,1.30574M251.95627,329.25633c-1.21429,0-2.25128-.43651-3.10903-1.30764-.85781-.87113-1.28672-1.91382-1.28672-3.12807s.42891-2.26266,1.28672-3.14713c.85775-.88447,1.89474-1.32671,3.10903-1.32671,1.24088,0,2.29694.44224,3.16807,1.32671s1.30574,1.93288,1.30574,3.14713-.43461,2.25693-1.30574,3.12807c-.87113.87113-1.9272,1.30764-3.16807,1.30764" style="fill:#333;"/><circle cx="230.2916" cy="247.28647" r="5.77505" style="fill:none; stroke:#333; stroke-miterlimit:10; stroke-width:3px;"/><path d="M187.23898,265.30466v-.00002s.00002.00002.00002.00002c6.08344,11.1231,15.22886,20.26851,26.35197,26.35193h.00002s-.00002.00002-.00002.00002c-11.1231,6.08344-20.26851,15.22886-26.35193,26.35197v.00002s-.00002-.00002-.00002-.00002c-6.08344-11.1231-15.22886-20.26851-26.35197-26.35193h-.00002s.00002-.00002.00002-.00002c11.1231-6.08344,20.26851-15.22886,26.35193-26.35197Z" style="fill:none; stroke:#333; stroke-linecap:round; stroke-miterlimit:10; stroke-width:3px;"/><path d="M187.23899,277.37136h0s0,0,0,0c3.2978,6.02978,8.25548,10.98745,14.28527,14.28524h0s0,.00001,0,.00001c-6.02978,3.2978-10.98745,8.25548-14.28524,14.28527h0s0,0,0,0c-3.2978-6.02978-8.25548-10.98745-14.28527-14.28524h0s0-.00001,0-.00001c6.02978-3.2978,10.98745-8.25548,14.28524-14.28527Z" style="fill:none; stroke:#333; stroke-linecap:round; stroke-miterlimit:10; stroke-width:3px;"/></g><polygon points="768.48415 575.19276 757.63405 577.40967 765.15779 587.03216 760.80213 590.04203 754.62415 579.54843 748.36805 590.04203 744.01238 587.03216 751.53612 577.40967 740.60603 575.19276 742.38832 570.24238 752.76373 574.16343 751.85258 562.12579 757.31765 562.12579 756.40644 574.16343 766.82193 570.24238 768.48415 575.19276" style="fill:#333;"/><path d="M803.2619,630.37454c0,3.65037-3.00036,6.56686-6.64696,6.56686s-6.56302-2.91649-6.56302-6.56686c0-3.64654,2.91648-6.56302,6.56302-6.56302,3.81239,0,6.64696,3.0785,6.64696,6.56302" style="fill:#333;"/><path d="M811.31528,525.45431v-.00002s.00002.00002.00002.00002c6.08343,11.12311,15.22885,20.26852,26.35196,26.35194h.00002s-.00002.00002-.00002.00002c-11.12311,6.08343-20.26852,15.22885-26.35194,26.35196v.00002s-.00002-.00002-.00002-.00002c-6.08343-11.12311-15.22885-20.26852-26.35196-26.35194h-.00002s.00002-.00002.00002-.00002c11.12311-6.08343,20.26852-15.22885,26.35194-26.35196Z" style="fill:none; stroke:#333; stroke-linecap:round; stroke-miterlimit:10; stroke-width:3px;"/><path d="M811.31631,537.52199h0s0,0,0,0c3.29763,6.02947,8.25506,10.9869,14.28453,14.28452h0s0,.00001,0,.00001c-6.02947,3.29763-10.9869,8.25506-14.28452,14.28453h0s0,0,0,0c-3.29763-6.02947-8.25506-10.9869-14.28453-14.28452h0s0-.00001,0-.00001c6.02947-3.29763,10.9869-8.25506,14.28452-14.28453Z" style="fill:none; stroke:#333; stroke-linecap:round; stroke-miterlimit:10; stroke-width:3px;"/></svg>