<?xml version="1.0" encoding="UTF-8"?><svg id="_x30_3" xmlns="http://www.w3.org/2000/svg" viewBox="0 0 1000 1000"><circle cx="500" cy="500" r="496.45273" style="fill:#f4f4f4;"/><path d="M343.54833,825.87011h-9.27226c-13.12531-14.98769-19.68621-33.46807-19.68621-55.44114,0-22.05704,6.5609-40.8348,19.68621-56.32977h9.39937c-13.2944,16.08973-19.9416,34.82316-19.9416,56.20266,0,21.21156,6.60522,39.73393,19.81449,55.56826"/><path d="M254.78959,706.58226c8.58422,46.04061,23.67103,82.19787,42.00914,104.56745,1.69095-1.69095,4.55158-4.03147,6.76265-5.46236-18.33811-20.41973-33.55436-56.70644-41.74907-103.52721l-7.02271,4.42213Z"/><path d="M446.97064,759.69642c0,4.3615-.56093,8.54224-1.68278,12.54339-1.12187,3.99998-2.69852,7.7469-4.73118,11.23959-2.03264,3.49269-4.47693,6.66819-7.33408,9.52532-2.85828,2.85946-6.03379,5.30377-9.52648,7.33524-3.49271,2.03381-7.25012,3.61048-11.27225,4.73118-4.0233,1.12186-8.19239,1.68396-12.51073,1.68396-4.3615,0-8.54225-.5621-12.54222-1.68396-4.00115-1.1207-7.74807-2.69737-11.24077-4.73118-3.49385-2.03147-6.67985-4.47578-9.55797-7.33524-2.87928-2.85713-5.34574-6.03263-7.3982-9.52532-2.05364-3.49269-3.64197-7.25011-4.76383-11.27108-1.12186-4.02214-1.68162-8.19355-1.68162-12.5119s.55976-8.48742,1.68162-12.51073c1.12187-4.02214,2.7102-7.77955,4.76383-11.27225,2.05246-3.49269,4.51892-6.66819,7.3982-9.52649,2.87812-2.85713,6.06413-5.31193,9.55797-7.36557,3.49271-2.05364,7.24895-3.64197,11.27225-4.76266,4.02097-1.12186,8.19239-1.68396,12.51074-1.68396s8.48742.5621,12.51073,1.68396c4.02213,1.12069,7.77954,2.70902,11.27225,4.76266,3.49269,2.05364,6.66819,4.50844,9.52648,7.36557,2.85714,2.85829,5.30144,6.0338,7.33408,9.52649,2.03266,3.4927,3.60931,7.25012,4.73118,11.27225,1.12185,4.0233,1.68278,8.19238,1.68278,12.51073M399.91314,720.44996c-3.64197,0-7.13467.46647-10.47926,1.39708-3.34459.93177-6.46761,2.24372-9.36672,3.93701-2.90028,1.69445-5.54633,3.73642-7.93816,6.12825-2.39182,2.39183-4.44546,5.03904-6.15974,7.93816-1.71428,2.90144-3.03906,6.0233-3.96965,9.36789-.93178,3.34459-1.39708,6.83729-1.39708,10.47808h39.31061v-39.24647Z"/><path d="M545.99446,725.68728c-5.33178,37.84706-20.9387,63.20904-54.62483,78.94541-1.16968-1.68979-3.64197-4.29153-5.46237-5.72242,31.99518-14.5667,46.95139-38.36717,50.984-69.71047h-60.8685v28.22145h-7.80287v-35.50538h78.24452l-.46995,3.7714Z"/><path d="M660.44489,759.69642c0,4.3615-.56095,8.54224-1.68278,12.54339-1.12187,3.99998-2.69852,7.7469-4.73118,11.23959-2.03266,3.49269-4.47693,6.66819-7.33408,9.52532-2.85828,2.85946-6.0338,5.30377-9.52649,7.33524-3.49269,2.03381-7.25012,3.61048-11.27223,4.73118-4.02332,1.12186-8.19241,1.68396-12.51073,1.68396-4.36152,0-8.54225-.5621-12.54222-1.68396-4.00115-1.1207-7.74808-2.69737-11.24077-4.73118-3.49386-2.03147-6.67985-4.47578-9.55799-7.33524-2.87928-2.85713-5.34573-6.03263-7.39821-9.52532-2.05362-3.49269-3.64195-7.25011-4.76382-11.27108-1.12187-4.02214-1.68161-8.19355-1.68161-12.5119s.55974-8.48742,1.68161-12.51073c1.12187-4.02214,2.7102-7.77955,4.76382-11.27225,2.05248-3.49269,4.51893-6.66819,7.39821-9.52649,2.87814-2.85713,6.06413-5.31193,9.55799-7.36557,3.49269-2.05364,7.24895-3.64197,11.27223-4.76266,4.02097-1.12186,8.19241-1.68396,12.51076-1.68396s8.48741.5621,12.51073,1.68396c4.02211,1.12069,7.77954,2.70902,11.27223,4.76266,3.49269,2.05364,6.66821,4.50844,9.52649,7.36557,2.85714,2.85829,5.30142,6.0338,7.33408,9.52649,2.03266,3.4927,3.60931,7.25012,4.73118,11.27225,1.12183,4.0233,1.68278,8.19238,1.68278,12.51073M613.38739,720.44996c-3.64198,0-7.13467.46647-10.47928,1.39708-3.34457.93177-6.4676,2.24372-9.3667,3.93701-2.90028,1.69445-5.54634,3.73642-7.93816,6.12825s-4.44547,5.03904-6.15975,7.93816c-1.71428,2.90144-3.03904,6.0233-3.96965,9.36789-.93179,3.34459-1.39708,6.83729-1.39708,10.47808h39.31062v-39.24647Z"/><path d="M680.13203,825.87011h-9.27228c13.20926-15.83433,19.81448-34.35669,19.81448-55.56826,0-21.37949-6.64718-40.11293-19.94161-56.20266h9.39941c13.20926,15.49498,19.81448,34.27273,19.81448,56.32977,0,21.97308-6.60522,40.45346-19.81448,55.44114"/><path d="M759.12536,706.58226c-8.58424,46.04061-23.67103,82.19787-42.00915,104.56745-1.69097-1.69095-4.5516-4.03147-6.76266-5.46236,18.33812-20.41973,33.55555-56.70644,41.7491-103.52721l7.02271,4.42213Z"/><polygon points="183.15614 292.78888 172.30604 295.00579 179.82978 304.62828 175.47411 307.63815 169.29613 297.14455 163.04003 307.63815 158.68436 304.62828 166.2081 295.00579 155.27802 292.78888 157.06031 287.8385 167.43572 291.75955 166.52456 279.72191 171.98964 279.72191 171.07842 291.75955 181.49392 287.8385 183.15614 292.78888" style="fill:#333;"/><polygon points="297.8456 218.60052 286.9955 220.81743 294.51924 230.43992 290.16357 233.44979 283.98559 222.95619 277.72949 233.44979 273.37383 230.43992 280.89757 220.81743 269.96748 218.60052 271.74977 213.65014 282.12518 217.57119 281.21402 205.53355 286.6791 205.53355 285.76788 217.57119 296.18338 213.65014 297.8456 218.60052" style="fill:#333;"/><path d="M218.49943,326.00537c-1.04615,0-1.93954-.37443-2.67852-1.12493-.73903-.75051-1.10854-1.64882-1.10854-2.69657,0-1.0461.36951-1.93291,1.10854-2.66042.73898-.72751,1.63237-1.09209,2.67852-1.09209,1.06905,0,1.97888.36458,2.72939,1.09209s1.12493,1.61433,1.12493,2.66042c0,1.04775-.37443,1.94607-1.12493,2.69657s-1.66033,1.12493-2.72939,1.12493" style="fill:#333;"/><path d="M237.67613,368.04984c-1.04615,0-1.93954-.37607-2.67852-1.12657-.73903-.75051-1.10854-1.64881-1.10854-2.69492s.36951-1.94935,1.10854-2.71134c.73898-.762,1.63237-1.143,2.67852-1.143,1.06905,0,1.97888.381,2.72939,1.143s1.12493,1.66523,1.12493,2.71134-.37443,1.94441-1.12493,2.69492-1.66033,1.12657-2.72939,1.12657" style="fill:#333;"/><path d="M288.99839,435.34421c0,3.65037-3.00036,6.56686-6.64696,6.56686s-6.56302-2.91649-6.56302-6.56686c0-3.64654,2.91648-6.56302,6.56302-6.56302,3.81239,0,6.64696,3.0785,6.64696,6.56302" style="fill:#333;"/><circle cx="197.10467" cy="403.92248" r="5.77505" style="fill:none; stroke:#333; stroke-miterlimit:10; stroke-width:3px;"/><path d="M297.82044,315.3459v-.00002s.00002.00002.00002.00002c6.08343,11.12311,15.22885,20.26852,26.35196,26.35194h.00002s-.00002.00002-.00002.00002c-11.12311,6.08343-20.26852,15.22885-26.35194,26.35196v.00002s-.00002-.00002-.00002-.00002c-6.08343-11.12311-15.22885-20.26852-26.35196-26.35194h-.00002s.00002-.00002.00002-.00002c11.12311-6.08343,20.26852-15.22885,26.35194-26.35196Z" style="fill:none; stroke:#333; stroke-linecap:round; stroke-miterlimit:10; stroke-width:3px;"/><path d="M297.82147,327.41359h0s0,0,0,0c3.29763,6.02947,8.25506,10.9869,14.28453,14.28452h0s0,.00001,0,.00001c-6.02947,3.29763-10.9869,8.25506-14.28452,14.28453h0s0,0,0,0c-3.29763-6.02947-8.25506-10.9869-14.28453-14.28452h0s0-.00001,0-.00001c6.02947-3.29763,10.9869-8.25506,14.28452-14.28453Z" style="fill:none; stroke:#333; stroke-linecap:round; stroke-miterlimit:10; stroke-width:3px;"/><g id="folder"><polygon points="456.30713 410.43835 456.30713 250.67248 520.24375 250.67248 520.24375 262.94104 471.04798 262.94104 471.04798 398.13942 520.24375 398.13942 520.24375 410.40798 456.30713 410.40798 456.30713 410.43835"/><polygon points="701.86462 250.67228 701.86462 410.43817 637.92799 410.43817 637.92799 398.16961 687.12376 398.16961 687.12376 262.97123 637.92799 262.97123 637.92799 250.67228 701.86462 250.67228"/><polygon points="571.48946 368.80876 571.51983 341.22672 550.62952 356.26849 543.27399 343.45709 567.66094 331.51985 543.27399 319.43185 550.65932 306.8016 571.51983 321.81358 571.48946 294.14096 586.44125 294.14096 586.41086 321.81358 607.39176 306.86178 614.83727 319.43185 590.35975 331.51985 614.83727 343.45709 607.36137 356.32868 586.41086 341.22672 586.44125 368.80876 571.48946 368.80876"/><path d="M515.27071,209.81568v-49.68579h-161.3543v271.02321c0,11.12405,9.01782,20.14187,20.14187,20.14187h.00004c11.12405,0,20.14187-9.01782,20.14187-20.14187v-221.33742h369.77137v241.47929h-389.91328" style="fill:none; stroke:#333; stroke-miterlimit:10; stroke-width:8px;"/><line x1="389.70084" y1="184.01621" x2="431.4345" y2="184.01621" style="fill:none; stroke:#4d4d4d; stroke-miterlimit:10; stroke-width:4px;"/><line x1="446.9633" y1="184.01621" x2="463.46266" y2="184.01621" style="fill:none; stroke:#4d4d4d; stroke-miterlimit:10; stroke-width:4px;"/></g><polyline id="connector-bottom" points="421.63627 580.33143 526.55209 580.33143 526.55209 469.30463" style="fill:none; stroke:#4d4d4d; stroke-miterlimit:10; stroke-width:5px;"/><polyline id="connector-top" points="781.43209 323.11848 818.87209 323.11848 818.87209 474.08524" style="fill:none; stroke:#4d4d4d; stroke-miterlimit:10; stroke-width:5px;"/><g id="monitor-right"><rect x="618.55391" y="495.96755" width="226.16807" height="129.5144" style="fill:none; stroke:#333; stroke-miterlimit:10; stroke-width:8px;"/><polygon points="661.70516 606.22484 661.70516 515.22477 698.12242 515.22477 698.12242 522.21275 670.10131 522.21275 670.10131 599.21956 698.12242 599.21956 698.12242 606.20753 661.70516 606.20753 661.70516 606.22484"/><polygon points="801.57074 515.22466 801.57074 606.22473 765.15347 606.22473 765.15347 599.23676 793.17458 599.23676 793.17458 522.22994 765.15347 522.22994 765.15347 515.22466 801.57074 515.22466"/><polygon points="727.31115 582.51329 727.32845 566.803 715.42967 575.37056 711.24007 568.07339 725.13049 561.27413 711.24007 554.389 715.44664 547.19501 727.32845 555.74559 727.31115 539.98372 735.82745 539.98372 735.81014 555.74559 747.76052 547.22929 752.00136 554.389 738.05936 561.27413 752.00136 568.07339 747.74321 575.40484 735.81014 566.803 735.82745 582.51329 727.31115 582.51329"/><polyline points="618.55391 625.48195 618.55391 657.48755 844.72198 657.48755 844.72198 625.48195" style="fill:none; stroke:#333; stroke-miterlimit:10; stroke-width:8px;"/><circle cx="731.63795" cy="641.48475" r="7.78404" style="fill:#4d4d4d;"/></g><g id="monitor-left"><rect x="176.97752" y="495.96755" width="226.16807" height="129.5144" style="fill:none; stroke:#333; stroke-miterlimit:10; stroke-width:8px;"/><polygon points="220.12877 606.22484 220.12877 515.22477 256.54604 515.22477 256.54604 522.21275 228.52492 522.21275 228.52492 599.21956 256.54604 599.21956 256.54604 606.20753 220.12877 606.20753 220.12877 606.22484"/><polygon points="359.99435 515.22466 359.99435 606.22473 323.57708 606.22473 323.57708 599.23676 351.59819 599.23676 351.59819 522.22994 323.57708 522.22994 323.57708 515.22466 359.99435 515.22466"/><polygon points="285.73477 582.51329 285.75206 566.803 273.85328 575.37056 269.66369 568.07339 283.5541 561.27413 269.66369 554.389 273.87025 547.19501 285.75206 555.74559 285.73477 539.98372 294.25106 539.98372 294.23375 555.74559 306.18413 547.22929 310.42498 554.389 296.48298 561.27413 310.42498 568.07339 306.16683 575.40484 294.23375 566.803 294.25106 582.51329 285.73477 582.51329"/><polyline points="176.97752 625.48195 176.97752 657.48755 403.1456 657.48755 403.1456 625.48195" style="fill:none; stroke:#333; stroke-miterlimit:10; stroke-width:8px;"/><circle cx="290.06156" cy="641.48475" r="7.78404" style="fill:#4d4d4d;"/></g></svg>