<?xml version="1.0" encoding="UTF-8"?><svg id="_x30_4" xmlns="http://www.w3.org/2000/svg" viewBox="0 0 1000 1000"><circle cx="500" cy="500" r="496.45273" style="fill:#f4f4f4;"/><polyline id="connector-bottom" points="804.48 716.20458 804.48 763.3263 668.68 763.3263" style="fill:none; stroke:#4d4d4d; stroke-miterlimit:10; stroke-width:8px;"/><polyline id="connector-top" points="243.62198 426.36416 243.62198 545.68416 804.48 545.68416 804.48 591.96416" style="fill:none; stroke:#4d4d4d; stroke-miterlimit:10; stroke-width:8px;"/><g id="envelope-bottom"><rect x="741.21763" y="610.4915" width="126.52473" height="87.18573" style="fill:none; stroke:#000; stroke-miterlimit:10; stroke-width:8px;"/><polyline points="741.21763 610.4915 804.48 654.08437 867.74237 610.4915" style="fill:none; stroke:#000; stroke-miterlimit:10; stroke-width:8px;"/><line x1="817.13248" y1="645.36579" x2="867.74237" y2="697.67724" style="fill:none; stroke:#000; stroke-miterlimit:10; stroke-width:8px;"/><line x1="741.21763" y1="697.67724" x2="791.82753" y2="645.3658" style="fill:none; stroke:#000; stroke-miterlimit:10; stroke-width:8px;"/></g><g id="envelope-open"><g id="icon"><circle cx="243.62198" cy="264.50971" r="12.93498" style="fill:none; stroke:#000; stroke-miterlimit:10; stroke-width:8px;"/><path d="M243.62196,285.5494c-14.38501,0-26.04635,11.66129-26.04635,26.04635h52.09274c0-14.38507-11.66135-26.04635-26.04638-26.04635Z" style="fill:none; stroke:#000; stroke-miterlimit:10; stroke-width:8px;"/></g><g id="envelope-open-2"><polyline points="329.77309 288.66087 243.62199 347.92764 157.47089 288.66087" style="fill:none; stroke:#333; stroke-miterlimit:10; stroke-width:8px;"/><line x1="264.78852" y1="333.36634" x2="329.77307" y2="407.19442" style="fill:none; stroke:#333; stroke-miterlimit:10; stroke-width:8px;"/><line x1="157.47089" y1="407.19442" x2="222.45543" y2="333.36633" style="fill:none; stroke:#333; stroke-miterlimit:10; stroke-width:8px;"/><polyline points="276.02199 229.80416 184.94199 229.80416 184.94199 307.55933" style="fill:none; stroke:#333; stroke-miterlimit:10; stroke-width:8px;"/><line x1="302.30199" y1="309.3193" x2="302.30199" y2="256.08416" style="fill:none; stroke:#333; stroke-miterlimit:10; stroke-width:8px;"/><polyline points="264.10635 229.80416 243.62201 211.44417 223.13765 229.80416" style="fill:none; stroke:#333; stroke-miterlimit:10; stroke-width:8px;"/><polyline points="184.94199 264.03868 157.47089 288.66085 157.47089 407.19442 329.77307 407.19442 329.77307 288.66085 302.30199 264.03868" style="fill:none; stroke:#333; stroke-miterlimit:10; stroke-width:8px;"/></g><g id="plus"><circle cx="302.30199" cy="229.80416" r="26.28" style="fill:none; stroke:#333; stroke-miterlimit:10; stroke-width:8px;"/><line x1="302.30199" y1="215.76416" x2="302.30199" y2="243.84416" style="fill:none; stroke:#333; stroke-miterlimit:10; stroke-width:8px;"/><line x1="288.26199" y1="229.80416" x2="316.34199" y2="229.80416" style="fill:none; stroke:#333; stroke-miterlimit:10; stroke-width:8px;"/></g></g><g id="sparkles-bottom"><polygon points="718.19771 595.64223 707.34761 597.85914 714.87135 607.48163 710.51569 610.4915 704.33771 599.9979 698.08161 610.4915 693.72594 607.48163 701.24968 597.85914 690.31959 595.64223 692.10188 590.69186 702.4773 594.6129 701.56614 582.57527 707.03121 582.57527 706.12 594.6129 716.53549 590.69186 718.19771 595.64223" style="fill:#333;"/><path d="M859.13361,730.64278c0,3.65037-3.00036,6.56686-6.64696,6.56686s-6.56302-2.91649-6.56302-6.56686c0-3.64654,2.91648-6.56302,6.56302-6.56302,3.81239,0,6.64696,3.0785,6.64696,6.56302" style="fill:#333;"/><circle cx="857.71974" cy="561.70911" r="5.77505" style="fill:none; stroke:#333; stroke-miterlimit:10; stroke-width:3px;"/></g><g id="sparkles-top"><polygon points="149.61434 214.87301 138.76424 217.08992 146.28798 226.71241 141.93231 229.72228 135.75434 219.22868 129.49823 229.72228 125.14257 226.71241 132.66631 217.08992 121.73622 214.87301 123.51851 209.92263 133.89392 213.84368 132.98277 201.80604 138.44784 201.80604 137.53663 213.84368 147.95212 209.92263 149.61434 214.87301" style="fill:#333;"/><path d="M189.92412,163.40637c-1.21429,0-2.25128-.43461-3.10903-1.30574-.85781-.87113-1.28672-1.91383-1.28672-3.12999,0-1.21423.42891-2.24358,1.28672-3.08803.85775-.84445,1.89474-1.26762,3.10903-1.26762,1.24088,0,2.29694.42318,3.16807,1.26762.87113.84445,1.30574,1.87379,1.30574,3.08803,0,1.21615-.43461,2.25885-1.30574,3.12999s-1.9272,1.30574-3.16807,1.30574M189.92412,196.90776c-1.21429,0-2.25128-.43651-3.10903-1.30764-.85781-.87113-1.28672-1.91382-1.28672-3.12807s.42891-2.26266,1.28672-3.14713c.85775-.88447,1.89474-1.32671,3.10903-1.32671,1.24088,0,2.29694.44224,3.16807,1.32671s1.30574,1.93288,1.30574,3.14713-.43461,2.25693-1.30574,3.12807-1.9272,1.30764-3.16807,1.30764" style="fill:#333;"/><circle cx="310.56694" cy="138.08163" r="5.77505" style="fill:none; stroke:#333; stroke-miterlimit:10; stroke-width:3px;"/><path d="M350.95403,148.35289v-.00002s.00002.00002.00002.00002c6.08344,11.1231,15.22886,20.26851,26.35197,26.35193h.00002s-.00002.00002-.00002.00002c-11.1231,6.08344-20.26851,15.22886-26.35193,26.35197v.00002s-.00002-.00002-.00002-.00002c-6.08344-11.1231-15.22886-20.26851-26.35197-26.35193h-.00002s.00002-.00002.00002-.00002c11.1231-6.08344,20.26851-15.22886,26.35193-26.35197Z" style="fill:none; stroke:#333; stroke-linecap:round; stroke-miterlimit:10; stroke-width:3px;"/><path d="M350.95404,160.41959h0s0,0,0,0c3.2978,6.02978,8.25548,10.98745,14.28527,14.28524h0s0,.00001,0,.00001c-6.02978,3.2978-10.98745,8.25548-14.28524,14.28527h0s0,0,0,0c-3.2978-6.02978-8.25548-10.98745-14.28527-14.28524h0s0-.00001,0-.00001c6.02978-3.2978,10.98745-8.25548,14.28524-14.28527Z" style="fill:none; stroke:#333; stroke-linecap:round; stroke-miterlimit:10; stroke-width:3px;"/></g><g id="character-top"><path d="M150.09099,782.66932h-9.27226c-13.12531-14.98768-19.68622-33.46806-19.68622-55.44113,0-22.05704,6.56089-40.8348,19.68619-56.32978h9.39937c-13.29439,16.08973-19.94159,34.82317-19.94158,56.20266,0,21.21156,6.60523,39.73393,19.8145,55.56825"/><path d="M206.24264,663.38145c-8.5842,46.04061-23.67101,82.19788-42.00911,104.56746-1.69095-1.69095-4.55158-4.03147-6.76265-5.46236,18.3381-20.41974,33.55434-56.70646,41.74904-103.52723l7.02271,4.42213Z"/><path d="M319.65193,716.49557c0,4.3615-.56093,8.54224-1.68278,12.54339-1.12187,3.99998-2.69852,7.7469-4.73118,11.2396-2.03264,3.49269-4.47693,6.66819-7.33408,9.52532-2.85828,2.85946-6.03379,5.30377-9.52647,7.33524-3.49271,2.03381-7.25012,3.61048-11.27225,4.73119-4.0233,1.12186-8.19239,1.68396-12.51073,1.68396-4.3615,0-8.54225-.5621-12.54222-1.68395-4.00115-1.1207-7.74807-2.69737-11.24078-4.73118-3.49385-2.03147-6.67985-4.47578-9.55797-7.33524-2.87928-2.85713-5.34574-6.03262-7.3982-9.52532-2.05364-3.49269-3.64197-7.25011-4.76384-11.27108-1.12186-4.02214-1.68162-8.19355-1.68162-12.5119,0-4.31834.55976-8.48742,1.68161-12.51073,1.12187-4.02214,2.7102-7.77955,4.76383-11.27225,2.05246-3.49269,4.51892-6.6682,7.3982-9.52649,2.87812-2.85713,6.06412-5.31193,9.55797-7.36557,3.49271-2.05364,7.24895-3.64197,11.27225-4.76266,4.02097-1.12186,8.19239-1.68396,12.51074-1.68396,4.31833,0,8.48742.5621,12.51073,1.68395,4.02213,1.12069,7.77955,2.70902,11.27225,4.76266,3.49269,2.05364,6.6682,4.50844,9.52648,7.36556,2.85714,2.85829,5.30144,6.03379,7.33408,9.52648,2.03266,3.4927,3.60932,7.25011,4.73119,11.27225,1.12185,4.0233,1.68279,8.19238,1.68279,12.51073M272.59442,677.24912c-3.64197,0-7.13467.46647-10.47926,1.39709-3.34459.93177-6.46761,2.24372-9.36672,3.93701-2.90028,1.69445-5.54633,3.73642-7.93816,6.12825-2.39182,2.39183-4.44545,5.03904-6.15973,7.93816-1.71428,2.90144-3.03905,6.0233-3.96965,9.36789-.93178,3.34459-1.39707,6.83729-1.39707,10.47808h39.31061s-.00001-39.24648-.00001-39.24648Z"/><path d="M418.67574,689.52307c-5.33177,37.84706-20.93868,63.20905-54.6248,78.94543-1.16968-1.68978-3.64197-4.29152-5.46237-5.72242,31.99517-14.56671,46.95138-38.36719,50.98398-69.71048l-60.8685.00002v28.22145s-7.80286,0-7.80286,0v-35.50538s71.27194-.00002,71.27194-.00002h6.97257s-.46995,3.7714-.46995,3.7714Z"/><path d="M533.12617,716.49551c0,4.3615-.56095,8.54224-1.68278,12.54339-1.12187,3.99998-2.69852,7.7469-4.73118,11.2396s-4.47693,6.66819-7.33408,9.52532c-2.85828,2.85946-6.0338,5.30377-9.52649,7.33524-3.49269,2.03381-7.25012,3.61048-11.27223,4.73119-4.02332,1.12186-8.19241,1.68396-12.51073,1.68396-4.36152,0-8.54225-.5621-12.54222-1.68395-4.00115-1.1207-7.74808-2.69737-11.24078-4.73118-3.49386-2.03147-6.67985-4.47578-9.55799-7.33524-2.87928-2.85713-5.34573-6.03262-7.39821-9.52532-2.05362-3.49269-3.64195-7.25011-4.76382-11.27108-1.12187-4.02214-1.68161-8.19355-1.68161-12.5119,0-4.31834.55974-8.48742,1.6816-12.51073,1.12187-4.02214,2.7102-7.77955,4.76381-11.27225,2.05248-3.49269,4.51893-6.6682,7.39821-9.52649,2.87814-2.85713,6.06412-5.31193,9.55799-7.36557,3.49269-2.05364,7.24895-3.64197,11.27223-4.76266,4.02097-1.12186,8.19241-1.68396,12.51076-1.68396,4.31832,0,8.48741.5621,12.51073,1.68395,4.02211,1.12069,7.77955,2.70902,11.27224,4.76266s6.66821,4.50844,9.5265,7.36556c2.85714,2.85829,5.30142,6.03379,7.33408,9.52648,2.03266,3.4927,3.60932,7.25011,4.73119,11.27225,1.12183,4.0233,1.68279,8.19238,1.68279,12.51073M486.06866,677.24905c-3.64198,0-7.13467.46647-10.47928,1.39709-3.34457.93177-6.4676,2.24372-9.3667,3.93701-2.90028,1.69445-5.54634,3.73642-7.93816,6.12825s-4.44547,5.03904-6.15975,7.93816c-1.71428,2.90144-3.03904,6.0233-3.96965,9.36789-.93179,3.34459-1.39707,6.83729-1.39707,10.47808h39.31062s-.00001-39.24648-.00001-39.24648Z"/><path d="M552.81334,782.66919h-9.27228c13.20926-15.83433,19.81447-34.3567,19.81447-55.56826,0-21.37949-6.64719-40.11293-19.94162-56.20265h9.39941c13.20927,15.49497,19.81449,34.27272,19.8145,56.32976,0,21.97308-6.60521,40.45346-19.81447,55.44115"/><path d="M631.80663,663.38132c-8.58423,46.04061-23.67101,82.19788-42.00912,104.56746-1.69097-1.69095-4.5516-4.03147-6.76267-5.46236,18.33811-20.41974,33.55553-56.70646,41.74907-103.52723l7.02271,4.42213Z"/><polygon points="340.90117 787.77346 388.96 787.77346 364.93058 813.69346 340.90117 787.77346" style="fill:#333;"/><polygon points="364.9306 813.69346 343.61719 846.81342 364.9306 867.69342 386.24396 846.81342 364.9306 813.69346" style="fill:#333;"/></g><g id="character-top-2"><path d="M849.90899,385.57862h9.27226c13.12532-14.98767,19.68623-33.46805,19.68625-55.44112.00002-22.05704-6.56087-40.8348-19.68617-56.32979h-9.39937c13.29439,16.08973,19.94157,34.82317,19.94156,56.20267-.00002,21.21156-6.60525,39.73393-19.81453,55.56824"/><path d="M793.75738,266.29073c8.58418,46.04062,23.67097,82.19789,42.00906,104.56748,1.69095-1.69095,4.55159-4.03147,6.76265-5.46236-18.33809-20.41975-33.55432-56.70647-41.749-103.52724l-7.02272,4.42212Z"/><path d="M680.34808,319.40481c0,4.3615.56093,8.54224,1.68277,12.54339,1.12186,3.99998,2.69852,7.7469,4.73117,11.2396,2.03264,3.4927,4.47693,6.66819,7.33407,9.52533,2.85828,2.85946,6.03378,5.30377,9.52647,7.33525,3.49271,2.03382,7.25012,3.61049,11.27225,4.73119,4.0233,1.12186,8.19239,1.68396,12.51072,1.68397,4.3615,0,8.54225-.56209,12.54222-1.68395,4.00115-1.1207,7.74807-2.69736,11.24078-4.73117,3.49385-2.03147,6.67985-4.47577,9.55798-7.33523,2.87928-2.85713,5.34574-6.03262,7.39821-9.52531,2.05364-3.49269,3.64197-7.25011,4.76384-11.27108,1.12186-4.02214,1.68162-8.19355,1.68163-12.5119,0-4.31834-.55975-8.48742-1.68161-12.51073-1.12186-4.02214-2.71019-7.77956-4.76383-11.27226-2.05246-3.49269-4.51892-6.6682-7.39819-9.52649-2.87812-2.85713-6.06412-5.31193-9.55797-7.36557-3.49271-2.05364-7.24895-3.64197-11.27225-4.76267-4.02097-1.12186-8.19239-1.68396-12.51074-1.68397-4.31833,0-8.48742.56209-12.51073,1.68395-4.02213,1.12069-7.77955,2.70902-11.27226,4.76265-3.49269,2.05363-6.6682,4.50844-9.52648,7.36556-2.85715,2.85829-5.30144,6.03379-7.33409,9.52648-2.03266,3.4927-3.60932,7.25011-4.73119,11.27225-1.12185,4.0233-1.68279,8.19238-1.68279,12.51072M727.4056,280.15838c3.64197,0,7.13467.46648,10.47926,1.39709,3.34459.93177,6.46761,2.24372,9.36672,3.93701,2.90028,1.69445,5.54632,3.73642,7.93816,6.12825,2.39182,2.39183,4.44545,5.03905,6.15973,7.93816,1.71428,2.90144,3.03905,6.0233,3.96964,9.3679.93178,3.34459,1.39707,6.83729,1.39707,10.47808l-39.31061-.00003.00003-39.24647Z"/><path d="M581.32428,292.43227c5.33175,37.84706,20.93865,63.20905,54.62477,78.94545,1.16968-1.68978,3.64197-4.29152,5.46238-5.72242-31.99517-14.56672-46.95136-38.36721-50.98395-69.7105l60.8685.00004-.00002,28.22145h7.80287s.00003-35.50537.00003-35.50537l-71.27196-.00005h-6.97257s.46995,3.7714.46995,3.7714Z"/><path d="M466.87383,319.40466c0,4.3615.56095,8.54224,1.68277,12.54339,1.12186,3.99998,2.69852,7.7469,4.73117,11.2396,2.03265,3.4927,4.47693,6.66819,7.33407,9.52533,2.85828,2.85946,6.0338,5.30377,9.52649,7.33525,3.49269,2.03382,7.25012,3.61049,11.27223,4.73119,4.02332,1.12186,8.19241,1.68396,12.51072,1.68397,4.36152,0,8.54225-.56209,12.54222-1.68395,4.00115-1.1207,7.74809-2.69736,11.24078-4.73117,3.49387-2.03147,6.67985-4.47577,9.558-7.33523,2.87928-2.85713,5.34573-6.03262,7.39822-9.52531,2.05362-3.49269,3.64195-7.25011,4.76382-11.27108,1.12187-4.02214,1.68161-8.19355,1.68162-12.5119,0-4.31834-.55974-8.48742-1.6816-12.51073-1.12186-4.02214-2.71019-7.77956-4.76381-11.27226-2.05248-3.49269-4.51892-6.6682-7.3982-9.52649-2.87814-2.85713-6.06412-5.31193-9.55799-7.36557-3.49269-2.05364-7.24895-3.64197-11.27223-4.76267-4.02097-1.12186-8.19241-1.68396-12.51076-1.68397-4.31832,0-8.48741.56209-12.51073,1.68395-4.02211,1.12069-7.77955,2.70902-11.27224,4.76265-3.49269,2.05363-6.66821,4.50844-9.5265,7.36556-2.85715,2.85829-5.30143,6.03379-7.33409,9.52648-2.03266,3.4927-3.60932,7.25011-4.73119,11.27225-1.12183,4.0233-1.68279,8.19238-1.68279,12.51072M513.93136,280.15822c3.64198,0,7.13467.46648,10.47928,1.39709,3.34457.93177,6.4676,2.24372,9.3667,3.93701,2.90028,1.69445,5.54634,3.73642,7.93816,6.12825,2.39182,2.39183,4.44547,5.03905,6.15975,7.93816,1.71428,2.90144,3.03903,6.0233,3.96964,9.3679.93178,3.34459,1.39707,6.83729,1.39707,10.47808l-39.31062-.00003.00003-39.24647Z"/><path d="M447.18664,385.57833h9.27228c-13.20925-15.83433-19.81446-34.3567-19.81444-55.56827.00002-21.37949,6.64721-40.11293,19.94165-56.20264h-9.39941c-13.20928,15.49496-19.81451,34.27271-19.81452,56.32975-.00002,21.97308,6.60519,40.45346,19.81444,55.44116"/><path d="M368.19339,266.29042c8.58421,46.04062,23.67097,82.19789,42.00907,104.56748,1.69097-1.69095,4.5516-4.03147,6.76267-5.46236-18.3381-20.41975-33.55551-56.70647-41.74903-103.52724l-7.02272,4.42212Z"/><path d="M550.26143,230.41494h163.94704v-8.91994c0-26.67417-21.62369-48.29786-48.29786-48.29786h-.0001c-26.67417,0-48.29786,21.62369-48.29786,48.29786v8.91994" style="fill:none; stroke:#333; stroke-miterlimit:10; stroke-width:8px;"/></g></svg>