<?xml version="1.0" encoding="UTF-8"?><svg id="_x30_5" xmlns="http://www.w3.org/2000/svg" viewBox="0 0 1000 1000"><circle cx="500" cy="500" r="496.45273" style="fill:#f4f4f4;"/><g id="sparkles-left"><polygon points="110.89261 630.7001 100.04251 632.91701 107.56625 642.5395 103.21059 645.54937 97.03261 635.05577 90.77651 645.54937 86.42084 642.5395 93.94458 632.91701 83.01449 630.7001 84.79678 625.74973 95.17219 629.67077 94.26104 617.63314 99.72611 617.63314 98.8149 629.67077 109.23039 625.74973 110.89261 630.7001" style="fill:#333;"/><polygon points="223.0159 691.00911 212.1658 693.22602 219.68954 702.8485 215.33387 705.85838 209.1559 695.36477 202.89979 705.85838 198.54413 702.8485 206.06787 693.22602 195.13778 691.00911 196.92007 686.05873 207.29548 689.97977 206.38433 677.94214 211.8494 677.94214 210.93818 689.97977 221.35368 686.05873 223.0159 691.00911" style="fill:#333;"/><path d="M143.88682,655.8591c-1.21429,0-2.25128-.43461-3.10903-1.30574-.85781-.87113-1.28672-1.91383-1.28672-3.12999,0-1.21423.42891-2.24358,1.28672-3.08803.85775-.84445,1.89474-1.26762,3.10903-1.26762,1.24088,0,2.29694.42318,3.16807,1.26762.87113.84445,1.30574,1.87379,1.30574,3.08803,0,1.21615-.43461,2.25885-1.30574,3.12999s-1.9272,1.30574-3.16807,1.30574M143.88682,689.3605c-1.21429,0-2.25128-.43651-3.10903-1.30764-.85781-.87113-1.28672-1.91382-1.28672-3.12807s.42891-2.26266,1.28672-3.14713c.85775-.88447,1.89474-1.32671,3.10903-1.32671,1.24088,0,2.29694.44224,3.16807,1.32671s1.30574,1.93288,1.30574,3.14713-.43461,2.25693-1.30574,3.12807-1.9272,1.30764-3.16807,1.30764" style="fill:#333;"/><circle cx="172.01148" cy="726.1312" r="5.77505" style="fill:none; stroke:#333; stroke-miterlimit:10; stroke-width:3px;"/></g><g id="sparkles-right"><polygon points="846.50155 713.78375 835.65145 716.00066 843.17519 725.62315 838.81952 728.63303 832.64155 718.13942 826.38544 728.63303 822.02978 725.62315 829.55352 716.00066 818.62343 713.78375 820.40572 708.83338 830.78113 712.75442 829.86998 700.71679 835.33505 700.71679 834.42384 712.75442 844.83933 708.83338 846.50155 713.78375" style="fill:#333;"/><path d="M808.69248,678.04228c0,3.65037-3.00036,6.56686-6.64696,6.56686s-6.56302-2.91649-6.56302-6.56686c0-3.64654,2.91648-6.56302,6.56302-6.56302,3.81239,0,6.64696,3.0785,6.64696,6.56302" style="fill:#333;"/><circle cx="900.39835" cy="587.73127" r="5.77505" style="fill:none; stroke:#333; stroke-miterlimit:10; stroke-width:3px;"/><path d="M890.6335,641.49687v-.00002s.00002.00002.00002.00002c6.08344,11.1231,15.22886,20.26851,26.35197,26.35193h.00002s-.00002.00002-.00002.00002c-11.1231,6.08344-20.26851,15.22886-26.35193,26.35197v.00002s-.00002-.00002-.00002-.00002c-6.08344-11.1231-15.22886-20.26851-26.35197-26.35193h-.00002s.00002-.00002.00002-.00002c11.1231-6.08344,20.26851-15.22886,26.35193-26.35197Z" style="fill:none; stroke:#333; stroke-linecap:round; stroke-miterlimit:10; stroke-width:3px;"/><path d="M890.63351,653.56357h0s0,0,0,0c3.2978,6.02978,8.25548,10.98745,14.28527,14.28524h0s0,.00001,0,.00001c-6.02978,3.2978-10.98745,8.25548-14.28524,14.28527h0s0,0,0,0c-3.2978-6.02978-8.25548-10.98745-14.28527-14.28524h0s0-.00001,0-.00001c6.02978-3.2978,10.98745-8.25548,14.28524-14.28527Z" style="fill:none; stroke:#333; stroke-linecap:round; stroke-miterlimit:10; stroke-width:3px;"/></g><g id="character"><path d="M735.78771,825.87011h9.27226c13.12531-14.98769,19.68621-33.46807,19.68621-55.44114,0-22.05704-6.5609-40.8348-19.68621-56.32977h-9.39937c13.2944,16.08973,19.9416,34.82316,19.9416,56.20266,0,21.21156-6.60522,39.73393-19.81449,55.56826"/><path d="M679.63602,706.58226c8.58422,46.04061,23.67103,82.19787,42.00914,104.56745,1.69095-1.69095,4.55158-4.03147,6.76265-5.46236-18.33811-20.41973-33.55436-56.70644-41.74907-103.52721l-7.02271,4.42213Z"/><path d="M566.22675,759.69642c0-4.31834.56093-8.48742,1.68278-12.51073,1.12187-4.02214,2.69852-7.77955,4.73118-11.27225,2.03264-3.49269,4.47693-6.66819,7.33408-9.52649,2.85828-2.85713,6.03379-5.31193,9.52648-7.36557,3.49271-2.05364,7.25012-3.64197,11.27225-4.76266,4.0233-1.12186,8.19239-1.68396,12.51073-1.68396s8.48977.5621,12.51074,1.68396c4.0233,1.12069,7.77954,2.70902,11.27225,4.76266,3.49385,2.05364,6.67985,4.50844,9.55797,7.36557,2.87928,2.85829,5.34574,6.0338,7.3982,9.52649,2.05364,3.4927,3.64197,7.25012,4.76383,11.27225,1.12186,4.0233,1.68162,8.19238,1.68162,12.51073,0,4.31835-.55976,8.48976-1.68162,12.5119-1.12187,4.02097-2.7102,7.77839-4.76383,11.27108-2.05246,3.49269-4.51892,6.66819-7.3982,9.52532-2.87812,2.85946-6.06413,5.30377-9.55797,7.33524-3.49271,2.03381-7.23963,3.61048-11.24077,4.73118-3.99997,1.12186-8.18072,1.68396-12.54222,1.68396-4.31833,0-8.48742-.5621-12.51073-1.68396-4.02213-1.1207-7.77954-2.69737-11.27225-4.73118-3.49269-2.03147-6.66819-4.47578-9.52648-7.33524-2.85714-2.85713-5.30144-6.03263-7.33408-9.52532-2.03266-3.49269-3.60931-7.23961-4.73118-11.23959-1.12185-4.00115-1.68278-8.18189-1.68278-12.54339M613.28425,759.69642h39.31061c0-3.64079-.4653-7.13349-1.39708-10.47808-.9306-3.3446-2.25537-6.46645-3.96965-9.36789-1.71428-2.89911-3.76792-5.54633-6.15974-7.93816-2.39184-2.39183-5.03789-4.4338-7.93816-6.12825-2.8991-1.69329-6.02213-3.00524-9.36672-3.93701-3.34459-.93061-6.83729-1.39708-10.47926-1.39708v39.24647Z"/><path d="M467.20293,732.72395c5.33178,37.84706,20.9387,63.20904,54.62483,78.94541,1.16968-1.68979,3.64197-4.29153,5.46237-5.72242-31.99518-14.5667-46.95139-38.36717-50.984-69.71047h60.8685v28.22145s7.80287,0,7.80287,0v-35.50538s-71.27196,0-71.27196,0h-6.97257s.46995,3.7714.46995,3.7714Z"/><path d="M352.7525,759.69642c0-4.31834.56095-8.48742,1.68278-12.51073,1.12187-4.02214,2.69852-7.77955,4.73118-11.27225,2.03266-3.49269,4.47693-6.66819,7.33408-9.52649,2.85828-2.85713,6.0338-5.31193,9.52649-7.36557,3.49269-2.05364,7.25012-3.64197,11.27223-4.76266,4.02332-1.12186,8.19241-1.68396,12.51073-1.68396s8.48979.5621,12.51076,1.68396c4.02328,1.12069,7.77954,2.70902,11.27223,4.76266,3.49386,2.05364,6.67985,4.50844,9.55799,7.36557,2.87928,2.85829,5.34573,6.0338,7.39821,9.52649,2.05362,3.4927,3.64195,7.25012,4.76382,11.27225,1.12187,4.0233,1.68161,8.19238,1.68161,12.51073,0,4.31835-.55974,8.48976-1.68161,12.5119-1.12187,4.02097-2.7102,7.77839-4.76382,11.27108-2.05248,3.49269-4.51893,6.66819-7.39821,9.52532-2.87814,2.85946-6.06413,5.30377-9.55799,7.33524-3.49269,2.03381-7.23963,3.61048-11.24077,4.73118-3.99997,1.12186-8.1807,1.68396-12.54222,1.68396-4.31832,0-8.48741-.5621-12.51073-1.68396-4.02211-1.1207-7.77954-2.69737-11.27223-4.73118-3.49269-2.03147-6.66821-4.47578-9.52649-7.33524-2.85714-2.85713-5.30142-6.03263-7.33408-9.52532-2.03266-3.49269-3.60931-7.23961-4.73118-11.23959-1.12183-4.00115-1.68278-8.18189-1.68278-12.54339M399.81,759.69642h39.31062c0-3.64079-.46529-7.13349-1.39708-10.47808-.93061-3.3446-2.25537-6.46645-3.96965-9.36789-1.71428-2.89911-3.76793-5.54633-6.15975-7.93816s-5.03789-4.4338-7.93816-6.12825c-2.8991-1.69329-6.02213-3.00524-9.3667-3.93701-3.3446-.93061-6.83729-1.39708-10.47928-1.39708v39.24647Z"/><path d="M333.06536,825.87011h9.27228c-13.20926-15.83433-19.81448-34.35669-19.81448-55.56826,0-21.37949,6.64718-40.11293,19.94161-56.20266h-9.39941c-13.20926,15.49498-19.81448,34.27273-19.81448,56.32977,0,21.97308,6.60522,40.45346,19.81448,55.44114"/><path d="M254.07203,706.58226c8.58424,46.04061,23.67103,82.19787,42.00915,104.56745,1.69097-1.69095,4.5516-4.03147,6.76266-5.46236-18.33812-20.41973-33.55555-56.70644-41.7491-103.52721l-7.02271,4.42213Z"/></g><g id="dashboard-monitor"><g id="dashboard-frame"><rect x="183.47469" y="233.59171" width="642.29982" height="347.18476" style="fill:none; stroke:#000; stroke-miterlimit:10; stroke-width:8px;"/><rect x="183.47469" y="580.77647" width="642.29982" height="56.65883" style="fill:none; stroke:#000; stroke-miterlimit:10; stroke-width:8px;"/></g><circle cx="504.6246" cy="609.10589" r="14.54117" style="fill:#4d4d4d;"/></g><g id="logo-top"><polygon points="233.91461 324.19959 233.91461 264.0512 257.98536 264.0512 257.98536 268.67005 239.46422 268.67005 239.46422 319.5693 257.98536 319.5693 257.98536 324.18815 233.91461 324.18815 233.91461 324.19959"/><polygon points="326.36168 264.05113 326.36168 324.19952 302.29093 324.19952 302.29093 319.58067 320.81207 319.58067 320.81207 268.68141 302.29093 268.68141 302.29093 264.05113 326.36168 264.05113"/><polygon points="277.27826 308.52695 277.2897 298.14291 269.42495 303.80581 266.65575 298.98259 275.83691 294.48848 266.65575 289.93761 269.43617 285.18259 277.2897 290.83428 277.27826 280.41614 282.90728 280.41614 282.89585 290.83428 290.7947 285.20525 293.59777 289.93761 284.38252 294.48848 293.59777 298.98259 290.78326 303.82847 282.89585 298.14291 282.90728 308.52695 277.27826 308.52695"/></g><g id="divider"><line x1="287.87776" y1="350.15269" x2="774.88778" y2="350.15269" style="fill:none; stroke:#4d4d4d; stroke-miterlimit:10; stroke-width:5px;"/><line x1="270.17797" y1="350.15269" x2="233.926" y2="350.15269" style="fill:none; stroke:#4d4d4d; stroke-miterlimit:10; stroke-width:5px;"/></g><g id="installation-left"><g id="logo-left"><polygon points="302.2738 491.5379 302.2738 413.32008 333.57575 413.32008 333.57575 419.32649 309.49059 419.32649 309.49059 485.51662 333.57575 485.51662 333.57575 491.52303 302.2738 491.52303 302.2738 491.5379"/><polygon points="422.49329 413.31998 422.49329 491.53781 391.19134 491.53781 391.19134 485.5314 415.27649 485.5314 415.27649 419.34127 391.19134 419.34127 391.19134 413.31998 422.49329 413.31998"/><polygon points="358.66451 471.15698 358.67937 457.65342 348.45194 465.01754 344.85084 458.74536 356.79015 452.90116 344.85084 446.98314 348.46653 440.79965 358.67937 448.14918 358.66451 434.60128 365.98457 434.60128 365.96969 448.14918 376.24147 440.82911 379.88663 446.98314 367.90298 452.90116 379.88663 458.74536 376.2266 465.04701 365.96969 457.65342 365.98457 471.15698 358.66451 471.15698"/></g><rect x="233.926" y="382.42637" width="256.91509" height="161.10315" style="fill:none; stroke:#333; stroke-miterlimit:10; stroke-width:8px;"/><line x1="233.926" y1="521.77918" x2="490.84109" y2="521.77918" style="fill:none; stroke:#333; stroke-miterlimit:10; stroke-width:8px;"/></g><g id="installation-right"><g id="logo-right"><polygon points="586.32049 491.5379 586.32049 413.32008 617.62244 413.32008 617.62244 419.32649 593.53728 419.32649 593.53728 485.51662 617.62244 485.51662 617.62244 491.52303 586.32049 491.52303 586.32049 491.5379"/><polygon points="706.53998 413.31998 706.53998 491.53781 675.23803 491.53781 675.23803 485.5314 699.32318 485.5314 699.32318 419.34127 675.23803 419.34127 675.23803 413.31998 706.53998 413.31998"/><polygon points="642.7112 471.15698 642.72606 457.65342 632.49863 465.01754 628.89753 458.74536 640.83684 452.90116 628.89753 446.98314 632.51322 440.79965 642.72606 448.14918 642.7112 434.60128 650.03126 434.60128 650.01638 448.14918 660.28816 440.82911 663.93332 446.98314 651.94967 452.90116 663.93332 458.74536 660.27329 465.04701 650.01638 457.65342 650.03126 471.15698 642.7112 471.15698"/></g><rect x="517.97269" y="382.42637" width="256.91509" height="161.10315" style="fill:none; stroke:#333; stroke-miterlimit:10; stroke-width:8px;"/><line x1="517.97269" y1="521.77918" x2="774.88778" y2="521.77918" style="fill:none; stroke:#333; stroke-miterlimit:10; stroke-width:8px;"/></g></svg>