<?xml version="1.0" encoding="UTF-8"?>
<svg xmlns="http://www.w3.org/2000/svg" version="1.1" viewBox="0 0 1000 750">
  <defs>
    <style>
      .cls-1 {
        fill: #4d4d4d;
      }

      .cls-2 {
        fill: #333;
      }

      .cls-3, .cls-4 {
        fill: none;
        stroke: #333;
        stroke-miterlimit: 10;
        stroke-width: 3px;
      }

      .cls-4 {
        stroke-linecap: round;
      }
    </style>
  </defs>
  <!-- Generator: Adobe Illustrator 28.6.0, SVG Export Plug-In . SVG Version: 1.2.0 Build 709)  -->
  <g>
    <g id="_x30_2">
      <g id="logo">
        <polygon points="298.6 376.4 298.6 106.9 406.5 106.9 406.5 127.6 323.5 127.6 323.5 355.7 406.5 355.7 406.5 376.4 298.6 376.4 298.6 376.4"/>
        <polygon points="712.8 106.9 712.8 376.4 605 376.4 605 355.7 688 355.7 688 127.7 605 127.7 605 106.9 712.8 106.9"/>
        <polygon points="492.9 306.2 493 259.7 457.7 285.1 445.3 263.4 486.4 243.3 445.3 222.9 457.8 201.6 493 226.9 492.9 180.3 518.1 180.3 518.1 226.9 553.5 201.7 566 222.9 524.7 243.3 566 263.4 553.4 285.2 518.1 259.7 518.1 306.2 492.9 306.2"/>
      </g>
      <g id="character">
        <path d="M204,742.7h-9.3c-13.1-15-19.7-33.5-19.7-55.4s6.6-40.8,19.7-56.3h9.4c-13.3,16.1-19.9,34.8-19.9,56.2s6.6,39.7,19.8,55.6"/>
        <path d="M260.2,623.4c-8.6,46-23.7,82.2-42,104.6-1.7-1.7-4.6-4-6.8-5.5,18.3-20.4,33.6-56.7,41.7-103.5l7,4.4Z"/>
        <path d="M373.6,676.5c0,4.4-.6,8.5-1.7,12.5-1.1,4-2.7,7.7-4.7,11.2-2,3.5-4.5,6.7-7.3,9.5-2.9,2.9-6,5.3-9.5,7.3-3.5,2-7.3,3.6-11.3,4.7-4,1.1-8.2,1.7-12.5,1.7s-8.5-.6-12.5-1.7c-4-1.1-7.7-2.7-11.2-4.7-3.5-2-6.7-4.5-9.6-7.3-2.9-2.9-5.3-6-7.4-9.5-2.1-3.5-3.6-7.3-4.8-11.3-1.1-4-1.7-8.2-1.7-12.5s.6-8.5,1.7-12.5c1.1-4,2.7-7.8,4.8-11.3,2.1-3.5,4.5-6.7,7.4-9.5,2.9-2.9,6.1-5.3,9.6-7.4,3.5-2.1,7.2-3.6,11.3-4.8,4-1.1,8.2-1.7,12.5-1.7s8.5.6,12.5,1.7c4,1.1,7.8,2.7,11.3,4.8,3.5,2.1,6.7,4.5,9.5,7.4,2.9,2.9,5.3,6,7.3,9.5,2,3.5,3.6,7.3,4.7,11.3,1.1,4,1.7,8.2,1.7,12.5M326.5,637.3c-3.6,0-7.1.5-10.5,1.4-3.3.9-6.5,2.2-9.4,3.9-2.9,1.7-5.5,3.7-7.9,6.1-2.4,2.4-4.4,5-6.2,7.9-1.7,2.9-3,6-4,9.4-.9,3.3-1.4,6.8-1.4,10.5h39.3v-39.2Z"/>
        <path d="M472.6,649.5c-5.3,37.8-20.9,63.2-54.6,78.9-1.2-1.7-3.6-4.3-5.5-5.7,32-14.6,47-38.4,51-69.7h-60.9v28.2h-7.8v-35.5h78.2l-.5,3.8Z"/>
        <path d="M587.1,676.5c0,4.4-.6,8.5-1.7,12.5-1.1,4-2.7,7.7-4.7,11.2s-4.5,6.7-7.3,9.5c-2.9,2.9-6,5.3-9.5,7.3-3.5,2-7.3,3.6-11.3,4.7-4,1.1-8.2,1.7-12.5,1.7s-8.5-.6-12.5-1.7c-4-1.1-7.7-2.7-11.2-4.7-3.5-2-6.7-4.5-9.6-7.3-2.9-2.9-5.3-6-7.4-9.5-2.1-3.5-3.6-7.3-4.8-11.3-1.1-4-1.7-8.2-1.7-12.5s.6-8.5,1.7-12.5c1.1-4,2.7-7.8,4.8-11.3,2.1-3.5,4.5-6.7,7.4-9.5,2.9-2.9,6.1-5.3,9.6-7.4,3.5-2.1,7.2-3.6,11.3-4.8,4-1.1,8.2-1.7,12.5-1.7s8.5.6,12.5,1.7c4,1.1,7.8,2.7,11.3,4.8,3.5,2.1,6.7,4.5,9.5,7.4,2.9,2.9,5.3,6,7.3,9.5,2,3.5,3.6,7.3,4.7,11.3,1.1,4,1.7,8.2,1.7,12.5M540,637.3c-3.6,0-7.1.5-10.5,1.4-3.3.9-6.5,2.2-9.4,3.9-2.9,1.7-5.5,3.7-7.9,6.1s-4.4,5-6.2,7.9c-1.7,2.9-3,6-4,9.4-.9,3.3-1.4,6.8-1.4,10.5h39.3v-39.2Z"/>
        <path d="M606.8,742.7h-9.3c13.2-15.8,19.8-34.4,19.8-55.6s-6.6-40.1-19.9-56.2h9.4c13.2,15.5,19.8,34.3,19.8,56.3s-6.6,40.5-19.8,55.4"/>
        <path d="M685.7,623.4c-8.6,46-23.7,82.2-42,104.6-1.7-1.7-4.6-4-6.8-5.5,18.3-20.4,33.6-56.7,41.7-103.5l7,4.4Z"/>
      </g>
      <g id="wrench">
        <polygon class="cls-2" points="772.9 681.1 750.8 659.1 759.5 626.7 791.8 618 815.5 641.7 807.4 671.8 799.7 669.8 806.6 644.1 789.4 627 766 633.2 759.7 656.7 778.5 675.4 772.9 681.1"/>
        <path class="cls-2" d="M783.2,707.6c-14.6,0-29.3-5.6-40.4-16.7-15.6-15.6-20.8-38.7-13.5-59.4l-88.3-88.3c-20.7,7.3-43.7,2.1-59.4-13.5-15-15-20.4-36.9-14.3-57.1l1.9-6.4,37.5,37.5,23.4-6.3,6.3-23.4-37.5-37.5,6.4-1.9c20.3-6.2,42.2-.7,57.1,14.3,15.6,15.6,20.8,38.7,13.5,59.4l90.2,90.2-5.7,5.7-93.9-93.9,1-2.5c7.4-18.3,3.1-39.2-10.8-53.2-11.2-11.2-27-16.2-42.4-13.8l30.9,30.9-8.7,32.4-32.4,8.7-30.9-30.9c-2.4,15.4,2.6,31.2,13.8,42.4,14,14,34.9,18.2,53.2,10.8l2.5-1,95.7,95.7-1,2.5c-7.4,18.3-3.1,39.2,10.8,53.2,19.2,19.2,50.4,19.2,69.6,0,19.2-19.2,19.2-50.4,0-69.6l5.7-5.7c22.3,22.3,22.3,58.6,0,80.9s-25.8,16.7-40.4,16.7Z"/>
      </g>
      <path class="cls-2" d="M375.2,508h-33.5l-16.7-29,16.7-29h33.5l16.7,29-16.7,29ZM346.4,500h24.3l12.1-21-12.1-21h-24.3l-12.1,21,12.1,21Z"/>
      <path class="cls-2" d="M389.7,533h-62.4l-31.2-54,31.2-54h62.4l31.2,54-31.2,54ZM331.9,525h53.1l26.6-46-26.6-46h-53.1l-26.6,46,26.6,46Z"/>
      <polygon class="cls-1" points="271.7 482.9 207.4 482.9 207.4 302.2 271.7 302.2 271.7 310.2 215.4 310.2 215.4 474.9 271.7 474.9 271.7 482.9"/>
      <polygon class="cls-1" points="509.7 482.9 445.3 482.9 445.3 474.9 501.7 474.9 501.7 376.4 509.7 376.4 509.7 482.9"/>
      <path class="cls-2" d="M799.9,272.2h-33.5l-16.7-29,16.7-29h33.5l16.7,29-16.7,29ZM771,264.2h24.3l12.1-21-12.1-21h-24.3l-12.1,21,12.1,21Z"/>
      <polygon class="cls-2" points="777.9 252.4 788.4 252.4 793.7 243.2 788.4 234.1 777.9 234.1 772.6 243.2 777.9 252.4"/>
      <polygon class="cls-1" points="787.2 193.4 779.2 193.4 779.2 161 731.3 161 731.3 153 787.2 153 787.2 193.4"/>
      <polygon class="cls-1" points="787.2 333.4 731.3 333.4 731.3 325.4 779.2 325.4 779.2 293.1 787.2 293.1 787.2 333.4"/>
      <g id="sparkles-left">
        <path class="cls-2" d="M252.7,212.6c-1.2,0-2.3-.4-3.1-1.3-.9-.9-1.3-1.9-1.3-3.1s.4-2.2,1.3-3.1c.9-.8,1.9-1.3,3.1-1.3s2.3.4,3.2,1.3,1.3,1.9,1.3,3.1-.4,2.3-1.3,3.1-1.9,1.3-3.2,1.3M252.7,246.1c-1.2,0-2.3-.4-3.1-1.3-.9-.9-1.3-1.9-1.3-3.1s.4-2.3,1.3-3.1c.9-.9,1.9-1.3,3.1-1.3s2.3.4,3.2,1.3,1.3,1.9,1.3,3.1-.4,2.3-1.3,3.1c-.9.9-1.9,1.3-3.2,1.3"/>
        <circle class="cls-3" cx="231" cy="164.1" r="5.8"/>
        <g>
          <path class="cls-4" d="M188,182.1h0s0,0,0,0c6.1,11.1,15.2,20.3,26.4,26.4h0s0,0,0,0c-11.1,6.1-20.3,15.2-26.4,26.4h0s0,0,0,0c-6.1-11.1-15.2-20.3-26.4-26.4h0s0,0,0,0c11.1-6.1,20.3-15.2,26.4-26.4Z"/>
          <path class="cls-4" d="M188,194.2h0s0,0,0,0c3.3,6,8.3,11,14.3,14.3h0s0,0,0,0c-6,3.3-11,8.3-14.3,14.3h0s0,0,0,0c-3.3-6-8.3-11-14.3-14.3h0s0,0,0,0c6-3.3,11-8.3,14.3-14.3Z"/>
        </g>
      </g>
      <polygon class="cls-2" points="769.2 492 758.4 494.2 765.9 503.9 761.5 506.9 755.3 496.4 749.1 506.9 744.7 503.9 752.3 494.2 741.3 492 743.1 487.1 753.5 491 752.6 478.9 758 478.9 757.1 491 767.5 487.1 769.2 492"/>
      <path class="cls-2" d="M804,547.2c0,3.7-3,6.6-6.6,6.6s-6.6-2.9-6.6-6.6,2.9-6.6,6.6-6.6,6.6,3.1,6.6,6.6"/>
      <g>
        <path class="cls-2" d="M812,498.1l-1.3-2.4c-6-10.9-14.9-19.8-25.8-25.8l-2.4-1.3,2.4-1.3c10.9-6,19.8-14.9,25.8-25.8l1.3-2.4,1.3,2.4c6,10.9,14.9,19.8,25.8,25.8l2.4,1.3-2.4,1.3c-10.9,6-19.8,14.9-25.8,25.8l-1.3,2.4ZM788.7,468.6c9.6,5.7,17.6,13.7,23.3,23.3,5.7-9.6,13.7-17.6,23.3-23.3-9.6-5.7-17.6-13.7-23.3-23.3-5.7,9.6-13.7,17.6-23.3,23.3Z"/>
        <path class="cls-2" d="M812,486l-1.3-2.4c-3.2-5.8-7.9-10.5-13.7-13.7l-2.4-1.3,2.4-1.3c5.8-3.2,10.5-7.9,13.7-13.7l1.3-2.4,1.3,2.4c3.2,5.8,7.9,10.5,13.7,13.7l2.4,1.3-2.4,1.3c-5.8,3.2-10.5,7.9-13.7,13.7l-1.3,2.4ZM800.7,468.6c4.6,2.9,8.4,6.8,11.3,11.3,2.9-4.6,6.8-8.4,11.3-11.3-4.6-2.9-8.4-6.8-11.3-11.3-2.9,4.6-6.8,8.4-11.3,11.3Z"/>
      </g>
    </g>
  </g>
</svg>