<?xml version="1.0" encoding="UTF-8"?>
<svg xmlns="http://www.w3.org/2000/svg" version="1.1" viewBox="0 0 1000 750">
  <defs>
    <style>
      .cls-1, .cls-2 {
        fill: #333;
      }

      .cls-1, .cls-3, .cls-4 {
        stroke: #333;
        stroke-miterlimit: 10;
      }

      .cls-3, .cls-4 {
        fill: none;
        stroke-width: 3px;
      }

      .cls-4 {
        stroke-linecap: round;
      }
    </style>
  </defs>
  <!-- Generator: Adobe Illustrator 28.6.0, SVG Export Plug-In . SVG Version: 1.2.0 Build 709)  -->
  <g>
    <g id="_x30_1">
      <g>
        <g id="sparkles-right">
          <polygon class="cls-2" points="780.2 557.3 769.4 559.5 776.9 569.2 772.5 572.2 766.4 561.7 760.1 572.2 755.8 569.2 763.3 559.5 752.3 557.3 754.1 552.4 764.5 556.3 763.6 544.3 769.1 544.3 768.1 556.3 778.6 552.4 780.2 557.3"/>
          <polygon class="cls-2" points="863.5 618.1 852.6 620.3 860.1 629.9 855.8 632.9 849.6 622.4 843.3 632.9 839 629.9 846.5 620.3 835.6 618.1 837.4 613.1 847.7 617.1 846.8 605 852.3 605 851.4 617.1 861.8 613.1 863.5 618.1"/>
          <polygon class="cls-2" points="883.2 526.4 872.3 528.6 879.9 538.2 875.5 541.3 869.3 530.8 863.1 541.3 858.7 538.2 866.2 528.6 855.3 526.4 857.1 521.5 867.5 525.4 866.5 513.3 872 513.3 871.1 525.4 881.5 521.5 883.2 526.4"/>
          <path class="cls-1" d="M816.7,580.7c0,3.7-3,6.6-6.6,6.6s-6.6-2.9-6.6-6.6,2.9-6.6,6.6-6.6,6.6,3.1,6.6,6.6"/>
          <circle class="cls-3" cx="849.5" cy="496.3" r="5.8"/>
        </g>
        <g id="sparkles-left">
          <polygon class="cls-2" points="144.7 481.4 133.8 483.6 141.4 493.3 137 496.3 130.8 485.8 124.6 496.3 120.2 493.3 127.8 483.6 116.8 481.4 118.6 476.5 129 480.4 128.1 468.4 133.5 468.4 132.6 480.4 143 476.5 144.7 481.4"/>
          <polygon class="cls-2" points="157.9 618.1 147.1 620.3 154.6 629.9 150.2 632.9 144 622.4 137.8 632.9 133.4 629.9 141 620.3 130 618.1 131.8 613.1 142.2 617.1 141.3 605 146.7 605 145.8 617.1 156.2 613.1 157.9 618.1"/>
          <polygon class="cls-2" points="257.6 561.1 246.8 563.3 254.3 572.9 249.9 575.9 243.8 565.4 237.5 575.9 233.1 572.9 240.7 563.3 229.7 561.1 231.5 556.1 241.9 560.1 241 548 246.4 548 245.5 560.1 255.9 556.1 257.6 561.1"/>
          <path class="cls-2" d="M199.9,579.7c-1.2,0-2.3-.4-3.1-1.3-.9-.9-1.3-1.9-1.3-3.1s.4-2.2,1.3-3.1c.9-.8,1.9-1.3,3.1-1.3s2.3.4,3.2,1.3,1.3,1.9,1.3,3.1-.4,2.3-1.3,3.1-1.9,1.3-3.2,1.3M199.9,613.2c-1.2,0-2.3-.4-3.1-1.3-.9-.9-1.3-1.9-1.3-3.1s.4-2.3,1.3-3.1c.9-.9,1.9-1.3,3.1-1.3s2.3.4,3.2,1.3,1.3,1.9,1.3,3.1-.4,2.3-1.3,3.1c-.9.9-1.9,1.3-3.2,1.3"/>
          <g>
            <path class="cls-4" d="M158.5,521.3h0s0,0,0,0c6.1,11.1,15.2,20.3,26.4,26.4h0s0,0,0,0c-11.1,6.1-20.3,15.2-26.4,26.4h0s0,0,0,0c-6.1-11.1-15.2-20.3-26.4-26.4h0s0,0,0,0c11.1-6.1,20.3-15.2,26.4-26.4Z"/>
            <path class="cls-4" d="M158.5,533.4h0s0,0,0,0c3.3,6,8.3,11,14.3,14.3h0s0,0,0,0c-6,3.3-11,8.3-14.3,14.3h0s0,0,0,0c-3.3-6-8.3-11-14.3-14.3h0s0,0,0,0c6-3.3,11-8.3,14.3-14.3Z"/>
          </g>
        </g>
        <g id="logo">
          <polygon points="193.5 505 193.5 107.5 352.6 107.5 352.6 138 230.2 138 230.2 474.4 352.6 474.4 352.6 504.9 193.5 504.9 193.5 505"/>
          <polygon points="804.5 107.5 804.5 505 645.4 505 645.4 474.4 767.8 474.4 767.8 138.1 645.4 138.1 645.4 107.5 804.5 107.5"/>
          <polygon points="480.1 401.4 480.2 332.8 428.2 370.2 409.9 338.3 470.6 308.6 409.9 278.5 428.3 247.1 480.2 284.5 480.1 215.6 517.3 215.6 517.2 284.5 569.4 247.3 588 278.5 527.1 308.6 588 338.3 569.4 370.3 517.2 332.8 517.3 401.4 480.1 401.4"/>
        </g>
        <g id="character">
          <path d="M272.6,742.7h-9.3c-13.1-15-19.7-33.5-19.7-55.4s6.6-40.8,19.7-56.3h9.4c-13.3,16.1-19.9,34.8-19.9,56.2s6.6,39.7,19.8,55.6"/>
          <path d="M328.8,623.4c-8.6,46-23.7,82.2-42,104.6-1.7-1.7-4.6-4-6.8-5.5,18.3-20.4,33.6-56.7,41.7-103.5l7,4.4Z"/>
          <path d="M442.2,676.5c0,4.4-.6,8.5-1.7,12.5-1.1,4-2.7,7.7-4.7,11.2-2,3.5-4.5,6.7-7.3,9.5-2.9,2.9-6,5.3-9.5,7.3-3.5,2-7.3,3.6-11.3,4.7-4,1.1-8.2,1.7-12.5,1.7s-8.5-.6-12.5-1.7c-4-1.1-7.7-2.7-11.2-4.7-3.5-2-6.7-4.5-9.6-7.3-2.9-2.9-5.3-6-7.4-9.5-2.1-3.5-3.6-7.3-4.8-11.3-1.1-4-1.7-8.2-1.7-12.5s.6-8.5,1.7-12.5c1.1-4,2.7-7.8,4.8-11.3,2.1-3.5,4.5-6.7,7.4-9.5,2.9-2.9,6.1-5.3,9.6-7.4,3.5-2.1,7.2-3.6,11.3-4.8,4-1.1,8.2-1.7,12.5-1.7s8.5.6,12.5,1.7c4,1.1,7.8,2.7,11.3,4.8,3.5,2.1,6.7,4.5,9.5,7.4,2.9,2.9,5.3,6,7.3,9.5,2,3.5,3.6,7.3,4.7,11.3,1.1,4,1.7,8.2,1.7,12.5M395.1,637.3c-3.6,0-7.1.5-10.5,1.4-3.3.9-6.5,2.2-9.4,3.9-2.9,1.7-5.5,3.7-7.9,6.1-2.4,2.4-4.4,5-6.2,7.9-1.7,2.9-3,6-4,9.4-.9,3.3-1.4,6.8-1.4,10.5h39.3v-39.2Z"/>
          <path d="M541.2,649.5c-5.3,37.8-20.9,63.2-54.6,78.9-1.2-1.7-3.6-4.3-5.5-5.7,32-14.6,47-38.4,51-69.7h-60.9v28.2h-7.8v-35.5h78.2l-.5,3.8Z"/>
          <path d="M655.7,676.5c0,4.4-.6,8.5-1.7,12.5-1.1,4-2.7,7.7-4.7,11.2s-4.5,6.7-7.3,9.5c-2.9,2.9-6,5.3-9.5,7.3-3.5,2-7.3,3.6-11.3,4.7-4,1.1-8.2,1.7-12.5,1.7s-8.5-.6-12.5-1.7c-4-1.1-7.7-2.7-11.2-4.7-3.5-2-6.7-4.5-9.6-7.3-2.9-2.9-5.3-6-7.4-9.5-2.1-3.5-3.6-7.3-4.8-11.3-1.1-4-1.7-8.2-1.7-12.5s.6-8.5,1.7-12.5c1.1-4,2.7-7.8,4.8-11.3,2.1-3.5,4.5-6.7,7.4-9.5,2.9-2.9,6.1-5.3,9.6-7.4,3.5-2.1,7.2-3.6,11.3-4.8,4-1.1,8.2-1.7,12.5-1.7s8.5.6,12.5,1.7c4,1.1,7.8,2.7,11.3,4.8,3.5,2.1,6.7,4.5,9.5,7.4,2.9,2.9,5.3,6,7.3,9.5,2,3.5,3.6,7.3,4.7,11.3,1.1,4,1.7,8.2,1.7,12.5M608.6,637.3c-3.6,0-7.1.5-10.5,1.4-3.3.9-6.5,2.2-9.4,3.9-2.9,1.7-5.5,3.7-7.9,6.1s-4.4,5-6.2,7.9c-1.7,2.9-3,6-4,9.4-.9,3.3-1.4,6.8-1.4,10.5h39.3v-39.2Z"/>
          <path d="M675.4,742.7h-9.3c13.2-15.8,19.8-34.4,19.8-55.6s-6.6-40.1-19.9-56.2h9.4c13.2,15.5,19.8,34.3,19.8,56.3s-6.6,40.5-19.8,55.4"/>
          <path d="M754.3,623.4c-8.6,46-23.7,82.2-42,104.6-1.7-1.7-4.6-4-6.8-5.5,18.3-20.4,33.6-56.7,41.7-103.5l7,4.4Z"/>
        </g>
      </g>
    </g>
  </g>
</svg>