<?xml version="1.0" encoding="UTF-8"?>
<svg xmlns="http://www.w3.org/2000/svg" version="1.1" viewBox="0 0 1000 750">
  <defs>
    <style>
      .cls-1 {
        fill: #4d4d4d;
      }

      .cls-2 {
        stroke: #000;
      }

      .cls-2, .cls-3, .cls-4, .cls-5, .cls-6 {
        fill: none;
        stroke-miterlimit: 10;
      }

      .cls-2, .cls-5, .cls-6 {
        stroke-width: 8px;
      }

      .cls-7 {
        fill: #333;
      }

      .cls-3, .cls-4 {
        stroke-width: 3px;
      }

      .cls-3, .cls-4, .cls-5 {
        stroke: #333;
      }

      .cls-4 {
        stroke-linecap: round;
      }

      .cls-6 {
        stroke: #4d4d4d;
      }
    </style>
  </defs>
  <!-- Generator: Adobe Illustrator 28.6.0, SVG Export Plug-In . SVG Version: 1.2.0 Build 709)  -->
  <g>
    <g id="_x30_5">
      <g>
        <g id="sparkles-left">
          <polygon class="cls-7" points="110.9 547.5 100 549.7 107.6 559.4 103.2 562.4 97 551.9 90.8 562.4 86.4 559.4 93.9 549.7 83 547.5 84.8 542.6 95.2 546.5 94.3 534.5 99.7 534.5 98.8 546.5 109.2 542.6 110.9 547.5"/>
          <polygon class="cls-7" points="223 607.8 212.2 610 219.7 619.7 215.3 622.7 209.2 612.2 202.9 622.7 198.5 619.7 206.1 610 195.1 607.8 196.9 602.9 207.3 606.8 206.4 594.8 211.8 594.8 210.9 606.8 221.4 602.9 223 607.8"/>
          <path class="cls-7" d="M143.9,572.7c-1.2,0-2.3-.4-3.1-1.3-.9-.9-1.3-1.9-1.3-3.1s.4-2.2,1.3-3.1c.9-.8,1.9-1.3,3.1-1.3s2.3.4,3.2,1.3c.9.8,1.3,1.9,1.3,3.1s-.4,2.3-1.3,3.1-1.9,1.3-3.2,1.3M143.9,606.2c-1.2,0-2.3-.4-3.1-1.3-.9-.9-1.3-1.9-1.3-3.1s.4-2.3,1.3-3.1c.9-.9,1.9-1.3,3.1-1.3s2.3.4,3.2,1.3,1.3,1.9,1.3,3.1-.4,2.3-1.3,3.1-1.9,1.3-3.2,1.3"/>
          <circle class="cls-3" cx="172" cy="643" r="5.8"/>
        </g>
        <g id="sparkles-right">
          <polygon class="cls-7" points="846.5 630.6 835.7 632.8 843.2 642.4 838.8 645.5 832.6 635 826.4 645.5 822 642.4 829.6 632.8 818.6 630.6 820.4 625.7 830.8 629.6 829.9 617.5 835.3 617.5 834.4 629.6 844.8 625.7 846.5 630.6"/>
          <path class="cls-7" d="M808.7,594.9c0,3.7-3,6.6-6.6,6.6s-6.6-2.9-6.6-6.6,2.9-6.6,6.6-6.6,6.6,3.1,6.6,6.6"/>
          <circle class="cls-3" cx="900.4" cy="504.6" r="5.8"/>
          <g>
            <path class="cls-4" d="M890.6,558.3h0s0,0,0,0c6.1,11.1,15.2,20.3,26.4,26.4h0s0,0,0,0c-11.1,6.1-20.3,15.2-26.4,26.4h0s0,0,0,0c-6.1-11.1-15.2-20.3-26.4-26.4h0s0,0,0,0c11.1-6.1,20.3-15.2,26.4-26.4Z"/>
            <path class="cls-4" d="M890.6,570.4h0s0,0,0,0c3.3,6,8.3,11,14.3,14.3h0s0,0,0,0c-6,3.3-11,8.3-14.3,14.3h0s0,0,0,0c-3.3-6-8.3-11-14.3-14.3h0s0,0,0,0c6-3.3,11-8.3,14.3-14.3Z"/>
          </g>
        </g>
        <g id="character">
          <path d="M272,742.7h-9.3c-13.1-15-19.7-33.5-19.7-55.4s6.6-40.8,19.7-56.3h9.4c-13.3,16.1-19.9,34.8-19.9,56.2s6.6,39.7,19.8,55.6"/>
          <path d="M328.2,623.4c-8.6,46-23.7,82.2-42,104.6-1.7-1.7-4.6-4-6.8-5.5,18.3-20.4,33.6-56.7,41.7-103.5l7,4.4Z"/>
          <path d="M441.6,676.5c0,4.4-.6,8.5-1.7,12.5-1.1,4-2.7,7.7-4.7,11.2-2,3.5-4.5,6.7-7.3,9.5-2.9,2.9-6,5.3-9.5,7.3-3.5,2-7.3,3.6-11.3,4.7-4,1.1-8.2,1.7-12.5,1.7s-8.5-.6-12.5-1.7c-4-1.1-7.7-2.7-11.2-4.7-3.5-2-6.7-4.5-9.6-7.3-2.9-2.9-5.3-6-7.4-9.5-2.1-3.5-3.6-7.3-4.8-11.3-1.1-4-1.7-8.2-1.7-12.5s.6-8.5,1.7-12.5c1.1-4,2.7-7.8,4.8-11.3,2.1-3.5,4.5-6.7,7.4-9.5,2.9-2.9,6.1-5.3,9.6-7.4,3.5-2.1,7.2-3.6,11.3-4.8,4-1.1,8.2-1.7,12.5-1.7s8.5.6,12.5,1.7c4,1.1,7.8,2.7,11.3,4.8,3.5,2.1,6.7,4.5,9.5,7.4,2.9,2.9,5.3,6,7.3,9.5,2,3.5,3.6,7.3,4.7,11.3,1.1,4,1.7,8.2,1.7,12.5M394.5,637.3c-3.6,0-7.1.5-10.5,1.4-3.3.9-6.5,2.2-9.4,3.9-2.9,1.7-5.5,3.7-7.9,6.1-2.4,2.4-4.4,5-6.2,7.9-1.7,2.9-3,6-4,9.4-.9,3.3-1.4,6.8-1.4,10.5h39.3v-39.2Z"/>
          <path d="M540.6,649.5c-5.3,37.8-20.9,63.2-54.6,78.9-1.2-1.7-3.6-4.3-5.5-5.7,32-14.6,47-38.4,51-69.7h-60.9v28.2h-7.8v-35.5h78.2l-.5,3.8Z"/>
          <path d="M655.1,676.5c0,4.4-.6,8.5-1.7,12.5-1.1,4-2.7,7.7-4.7,11.2-2,3.5-4.5,6.7-7.3,9.5-2.9,2.9-6,5.3-9.5,7.3-3.5,2-7.3,3.6-11.3,4.7-4,1.1-8.2,1.7-12.5,1.7s-8.5-.6-12.5-1.7c-4-1.1-7.7-2.7-11.2-4.7-3.5-2-6.7-4.5-9.6-7.3-2.9-2.9-5.3-6-7.4-9.5-2.1-3.5-3.6-7.3-4.8-11.3-1.1-4-1.7-8.2-1.7-12.5s.6-8.5,1.7-12.5c1.1-4,2.7-7.8,4.8-11.3,2.1-3.5,4.5-6.7,7.4-9.5,2.9-2.9,6.1-5.3,9.6-7.4,3.5-2.1,7.2-3.6,11.3-4.8,4-1.1,8.2-1.7,12.5-1.7s8.5.6,12.5,1.7c4,1.1,7.8,2.7,11.3,4.8,3.5,2.1,6.7,4.5,9.5,7.4,2.9,2.9,5.3,6,7.3,9.5,2,3.5,3.6,7.3,4.7,11.3,1.1,4,1.7,8.2,1.7,12.5M608,637.3c-3.6,0-7.1.5-10.5,1.4-3.3.9-6.5,2.2-9.4,3.9-2.9,1.7-5.5,3.7-7.9,6.1s-4.4,5-6.2,7.9c-1.7,2.9-3,6-4,9.4-.9,3.3-1.4,6.8-1.4,10.5h39.3v-39.2Z"/>
          <path d="M674.8,742.7h-9.3c13.2-15.8,19.8-34.4,19.8-55.6s-6.6-40.1-19.9-56.2h9.4c13.2,15.5,19.8,34.3,19.8,56.3s-6.6,40.5-19.8,55.4"/>
          <path d="M753.7,623.4c-8.6,46-23.7,82.2-42,104.6-1.7-1.7-4.6-4-6.8-5.5,18.3-20.4,33.6-56.7,41.7-103.5l7,4.4Z"/>
        </g>
        <g id="dashboard-monitor">
          <g id="dashboard-frame">
            <rect class="cls-2" x="183.5" y="150.4" width="642.3" height="347.2"/>
            <rect class="cls-2" x="183.5" y="497.6" width="642.3" height="56.7"/>
          </g>
          <circle class="cls-1" cx="504.6" cy="525.9" r="14.5"/>
        </g>
        <g id="logo-top">
          <polygon points="233.9 241 233.9 180.9 258 180.9 258 185.5 239.5 185.5 239.5 236.4 258 236.4 258 241 233.9 241 233.9 241"/>
          <polygon points="326.4 180.9 326.4 241 302.3 241 302.3 236.4 320.8 236.4 320.8 185.5 302.3 185.5 302.3 180.9 326.4 180.9"/>
          <polygon points="277.3 225.4 277.3 215 269.4 220.6 266.7 215.8 275.8 211.3 266.7 206.8 269.4 202 277.3 207.7 277.3 197.2 282.9 197.2 282.9 207.7 290.8 202 293.6 206.8 284.4 211.3 293.6 215.8 290.8 220.7 282.9 215 282.9 225.4 277.3 225.4"/>
        </g>
        <g id="divider">
          <line class="cls-6" x1="287.9" y1="267" x2="774.9" y2="267"/>
          <line class="cls-6" x1="270.2" y1="267" x2="233.9" y2="267"/>
        </g>
        <g id="installation-left">
          <g id="logo-left">
            <polygon points="302.3 408.4 302.3 330.1 333.6 330.1 333.6 336.1 309.5 336.1 309.5 402.3 333.6 402.3 333.6 408.3 302.3 408.3 302.3 408.4"/>
            <polygon points="422.5 330.1 422.5 408.4 391.2 408.4 391.2 402.4 415.3 402.4 415.3 336.2 391.2 336.2 391.2 330.1 422.5 330.1"/>
            <polygon points="358.7 388 358.7 374.5 348.5 381.8 344.9 375.6 356.8 369.7 344.9 363.8 348.5 357.6 358.7 365 358.7 351.4 366 351.4 366 365 376.2 357.7 379.9 363.8 367.9 369.7 379.9 375.6 376.2 381.9 366 374.5 366 388 358.7 388"/>
          </g>
          <g>
            <rect class="cls-5" x="233.9" y="299.2" width="256.9" height="161.1"/>
            <line class="cls-5" x1="233.9" y1="438.6" x2="490.8" y2="438.6"/>
          </g>
        </g>
        <g id="installation-right">
          <g id="logo-right">
            <polygon points="586.3 408.4 586.3 330.1 617.6 330.1 617.6 336.1 593.5 336.1 593.5 402.3 617.6 402.3 617.6 408.3 586.3 408.3 586.3 408.4"/>
            <polygon points="706.5 330.1 706.5 408.4 675.2 408.4 675.2 402.4 699.3 402.4 699.3 336.2 675.2 336.2 675.2 330.1 706.5 330.1"/>
            <polygon points="642.7 388 642.7 374.5 632.5 381.8 628.9 375.6 640.8 369.7 628.9 363.8 632.5 357.6 642.7 365 642.7 351.4 650 351.4 650 365 660.3 357.7 663.9 363.8 651.9 369.7 663.9 375.6 660.3 381.9 650 374.5 650 388 642.7 388"/>
          </g>
          <g>
            <rect class="cls-5" x="518" y="299.2" width="256.9" height="161.1"/>
            <line class="cls-5" x1="518" y1="438.6" x2="774.9" y2="438.6"/>
          </g>
        </g>
        <polyline id="bracket-right" class="cls-6" points="803.3 110 864.2 110 864.2 170.9"/>
        <polyline id="bracket-left" class="cls-6" points="145 170.9 145 110 205.9 110"/>
      </g>
    </g>
  </g>
</svg>