<?xml version="1.0" encoding="UTF-8"?><svg id="_x30_1" xmlns="http://www.w3.org/2000/svg" viewBox="0 0 1000 1000"><circle cx="500" cy="500" r="496.45273" style="fill:#f4f4f4;"/><g id="sparkles-right"><polygon points="780.22372 640.49396 769.37362 642.71087 776.89736 652.33336 772.5417 655.34323 766.36372 644.84962 760.10762 655.34323 755.75195 652.33336 763.27569 642.71087 752.3456 640.49396 754.12789 635.54358 764.5033 639.46463 763.59215 627.42699 769.05722 627.42699 768.14601 639.46463 778.5615 635.54358 780.22372 640.49396" style="fill:#333;"/><polygon points="863.46452 701.26898 852.61442 703.48589 860.13816 713.10838 855.78249 716.11825 849.60451 705.62465 843.34841 716.11825 838.99275 713.10838 846.51649 703.48589 835.5864 701.26898 837.36869 696.31861 847.7441 700.23965 846.83294 688.20202 852.29802 688.20202 851.3868 700.23965 861.8023 696.31861 863.46452 701.26898" style="fill:#333;"/><polygon points="883.17863 609.58644 872.32853 611.80335 879.85227 621.42584 875.4966 624.43571 869.31863 613.94211 863.06252 624.43571 858.70686 621.42584 866.2306 611.80335 855.30051 609.58644 857.0828 604.63606 867.45821 608.55711 866.54706 596.51947 872.01213 596.51947 871.10091 608.55711 881.51641 604.63606 883.17863 609.58644" style="fill:#333;"/><path d="M816.69851,663.91591c0,3.65037-3.00036,6.56686-6.64696,6.56686s-6.56302-2.91649-6.56302-6.56686c0-3.64654,2.91648-6.56302,6.56302-6.56302,3.81239,0,6.64696,3.0785,6.64696,6.56302" style="fill:#333; stroke:#333; stroke-miterlimit:10;"/><circle cx="849.52546" cy="579.45313" r="5.77505" style="fill:none; stroke:#333; stroke-miterlimit:10; stroke-width:3px;"/></g><g id="sparkles-left"><polygon points="144.69949 564.60386 133.84939 566.82077 141.37313 576.44325 137.01746 579.45313 130.83949 568.95952 124.58338 579.45313 120.22772 576.44325 127.75146 566.82077 116.82137 564.60386 118.60366 559.65348 128.97907 563.57452 128.06792 551.53689 133.53299 551.53689 132.62178 563.57452 143.03727 559.65348 144.69949 564.60386" style="fill:#333;"/><polygon points="157.90179 701.26898 147.05169 703.48589 154.57543 713.10838 150.21977 716.11825 144.04179 705.62465 137.78569 716.11825 133.43002 713.10838 140.95376 703.48589 130.02367 701.26898 131.80596 696.31861 142.18138 700.23965 141.27022 688.20202 146.73529 688.20202 145.82408 700.23965 156.23957 696.31861 157.90179 701.26898" style="fill:#333;"/><polygon points="257.61051 644.26246 246.76041 646.47937 254.28415 656.10185 249.92848 659.11173 243.7505 648.61812 237.4944 659.11173 233.13874 656.10185 240.66248 646.47937 229.73239 644.26246 231.51468 639.31208 241.89009 643.23312 240.97893 631.19549 246.44401 631.19549 245.53279 643.23312 255.94829 639.31208 257.61051 644.26246" style="fill:#333;"/><path d="M199.92427,662.91783c-1.21429,0-2.25128-.43461-3.10903-1.30574-.85781-.87113-1.28672-1.91383-1.28672-3.12999,0-1.21423.42891-2.24358,1.28672-3.08803.85775-.84445,1.89474-1.26762,3.10903-1.26762,1.24088,0,2.29694.42318,3.16807,1.26762s1.30574,1.87379,1.30574,3.08803c0,1.21615-.43461,2.25885-1.30574,3.12999s-1.9272,1.30574-3.16807,1.30574M199.92427,696.41922c-1.21429,0-2.25128-.43651-3.10903-1.30764-.85781-.87113-1.28672-1.91382-1.28672-3.12807s.42891-2.26266,1.28672-3.14713c.85775-.88447,1.89474-1.32671,3.10903-1.32671,1.24088,0,2.29694.44224,3.16807,1.32671s1.30574,1.93288,1.30574,3.14713-.43461,2.25693-1.30574,3.12807c-.87113.87113-1.9272,1.30764-3.16807,1.30764" style="fill:#333;"/><path d="M158.47076,604.50604v-.00002s.00002.00002.00002.00002c6.08344,11.1231,15.22886,20.26851,26.35197,26.35193h.00002s-.00002.00002-.00002.00002c-11.1231,6.08344-20.26851,15.22886-26.35193,26.35197v.00002s-.00002-.00002-.00002-.00002c-6.08344-11.1231-15.22886-20.26851-26.35197-26.35193h-.00002s.00002-.00002.00002-.00002c11.1231-6.08344,20.26851-15.22886,26.35193-26.35197Z" style="fill:none; stroke:#333; stroke-linecap:round; stroke-miterlimit:10; stroke-width:3px;"/><path d="M158.47077,616.57274h0s0,0,0,0c3.2978,6.02978,8.25548,10.98745,14.28527,14.28524h0s0,.00001,0,.00001c-6.02978,3.2978-10.98745,8.25548-14.28524,14.28527h0s0,0,0,0c-3.2978-6.02978-8.25548-10.98745-14.28527-14.28524h0s0-.00001,0-.00001c6.02978-3.2978,10.98745-8.25548,14.28524-14.28527Z" style="fill:none; stroke:#333; stroke-linecap:round; stroke-miterlimit:10; stroke-width:3px;"/></g><g id="logo"><polygon points="193.52852 588.14708 193.52852 190.64114 352.60622 190.64114 352.60622 221.16597 230.20454 221.16597 230.20454 557.54668 352.60622 557.54668 352.60622 588.0715 193.52852 588.0715 193.52852 588.14708"/><polygon points="804.48852 190.64066 804.48852 588.14662 645.41082 588.14662 645.41082 557.62179 767.81248 557.62179 767.81248 221.24108 645.41082 221.24108 645.41082 190.64066 804.48852 190.64066"/><polygon points="480.10825 484.57045 480.18381 415.94487 428.20761 453.3696 409.90666 421.49415 470.58269 391.79368 409.90666 361.71808 428.28175 330.29335 480.18381 367.64396 480.10825 298.79302 517.30907 298.79302 517.23347 367.64396 569.43505 330.44309 587.95988 361.71808 527.05851 391.79368 587.95988 421.49415 569.35945 453.51936 517.23347 415.94487 517.30907 484.57045 480.10825 484.57045"/></g><g id="character"><path d="M272.62992,825.87011h-9.27226c-13.12531-14.98769-19.68621-33.46807-19.68621-55.44114,0-22.05704,6.5609-40.8348,19.68621-56.32977h9.39937c-13.2944,16.08973-19.9416,34.82316-19.9416,56.20266,0,21.21156,6.60522,39.73393,19.81449,55.56826"/><path d="M328.78161,706.58226c-8.58422,46.04061-23.67103,82.19787-42.00914,104.56745-1.69095-1.69095-4.55158-4.03147-6.76265-5.46236,18.33811-20.41973,33.55436-56.70644,41.74907-103.52721l7.02271,4.42213Z"/><path d="M442.19088,759.69642c0,4.3615-.56093,8.54224-1.68278,12.54339-1.12187,3.99998-2.69852,7.7469-4.73118,11.23959-2.03264,3.49269-4.47693,6.66819-7.33408,9.52532-2.85828,2.85946-6.03379,5.30377-9.52648,7.33524-3.49271,2.03381-7.25012,3.61048-11.27225,4.73118-4.0233,1.12186-8.19239,1.68396-12.51073,1.68396-4.3615,0-8.54225-.5621-12.54222-1.68396-4.00115-1.1207-7.74807-2.69737-11.24077-4.73118-3.49385-2.03147-6.67985-4.47578-9.55797-7.33524-2.87928-2.85713-5.34574-6.03263-7.3982-9.52532-2.05364-3.49269-3.64197-7.25011-4.76383-11.27108-1.12186-4.02214-1.68162-8.19355-1.68162-12.5119s.55976-8.48742,1.68162-12.51073c1.12187-4.02214,2.7102-7.77955,4.76383-11.27225,2.05246-3.49269,4.51892-6.66819,7.3982-9.52649,2.87812-2.85713,6.06413-5.31193,9.55797-7.36557,3.49271-2.05364,7.24895-3.64197,11.27225-4.76266,4.02097-1.12186,8.19239-1.68396,12.51074-1.68396s8.48742.5621,12.51073,1.68396c4.02213,1.12069,7.77954,2.70902,11.27225,4.76266,3.49269,2.05364,6.66819,4.50844,9.52648,7.36557,2.85714,2.85829,5.30144,6.0338,7.33408,9.52649,2.03266,3.4927,3.60931,7.25012,4.73118,11.27225,1.12185,4.0233,1.68278,8.19238,1.68278,12.51073M395.13338,720.44996c-3.64197,0-7.13467.46647-10.47926,1.39708-3.34459.93177-6.46761,2.24372-9.36672,3.93701-2.90028,1.69445-5.54633,3.73642-7.93816,6.12825-2.39182,2.39183-4.44546,5.03904-6.15974,7.93816-1.71428,2.90144-3.03906,6.0233-3.96965,9.36789-.93178,3.34459-1.39708,6.83729-1.39708,10.47808h39.31061v-39.24647Z"/><path d="M541.2147,732.72395c-5.33178,37.84706-20.9387,63.20904-54.62483,78.94541-1.16968-1.68979-3.64197-4.29153-5.46237-5.72242,31.99518-14.5667,46.95139-38.36717,50.984-69.71047h-60.8685v28.22145h-7.80287v-35.50538h78.24452l-.46995,3.7714Z"/><path d="M655.66513,759.69642c0,4.3615-.56095,8.54224-1.68278,12.54339-1.12187,3.99998-2.69852,7.7469-4.73118,11.23959s-4.47693,6.66819-7.33408,9.52532c-2.85828,2.85946-6.0338,5.30377-9.52649,7.33524-3.49269,2.03381-7.25012,3.61048-11.27223,4.73118-4.02332,1.12186-8.19241,1.68396-12.51073,1.68396-4.36152,0-8.54225-.5621-12.54222-1.68396-4.00115-1.1207-7.74808-2.69737-11.24077-4.73118-3.49386-2.03147-6.67985-4.47578-9.55799-7.33524-2.87928-2.85713-5.34573-6.03263-7.39821-9.52532-2.05362-3.49269-3.64195-7.25011-4.76382-11.27108-1.12187-4.02214-1.68161-8.19355-1.68161-12.5119s.55974-8.48742,1.68161-12.51073c1.12187-4.02214,2.7102-7.77955,4.76382-11.27225,2.05248-3.49269,4.51893-6.66819,7.39821-9.52649,2.87814-2.85713,6.06413-5.31193,9.55799-7.36557,3.49269-2.05364,7.24895-3.64197,11.27223-4.76266,4.02097-1.12186,8.19241-1.68396,12.51076-1.68396s8.48741.5621,12.51073,1.68396c4.02211,1.12069,7.77954,2.70902,11.27223,4.76266,3.49269,2.05364,6.66821,4.50844,9.52649,7.36557,2.85714,2.85829,5.30142,6.0338,7.33408,9.52649,2.03266,3.4927,3.60931,7.25012,4.73118,11.27225,1.12183,4.0233,1.68278,8.19238,1.68278,12.51073M608.60763,720.44996c-3.64198,0-7.13467.46647-10.47928,1.39708-3.34457.93177-6.4676,2.24372-9.3667,3.93701-2.90028,1.69445-5.54634,3.73642-7.93816,6.12825s-4.44547,5.03904-6.15975,7.93816c-1.71428,2.90144-3.03904,6.0233-3.96965,9.36789-.93179,3.34459-1.39708,6.83729-1.39708,10.47808h39.31062v-39.24647Z"/><path d="M675.35227,825.87011h-9.27228c13.20926-15.83433,19.81448-34.35669,19.81448-55.56826,0-21.37949-6.64718-40.11293-19.94161-56.20266h9.39941c13.20926,15.49498,19.81448,34.27273,19.81448,56.32977,0,21.97308-6.60522,40.45346-19.81448,55.44114"/><path d="M754.3456,706.58226c-8.58424,46.04061-23.67103,82.19787-42.00915,104.56745-1.69097-1.69095-4.5516-4.03147-6.76266-5.46236,18.33812-20.41973,33.55555-56.70644,41.7491-103.52721l7.02271,4.42213Z"/></g></svg>