<?xml version="1.0" encoding="UTF-8"?>
<svg xmlns="http://www.w3.org/2000/svg" version="1.1" viewBox="0 0 1000 750">
  <defs>
    <style>
      .cls-1 {
        fill: #4d4d4d;
      }

      .cls-2 {
        fill: #333;
      }

      .cls-3 {
        stroke: #333;
      }

      .cls-3, .cls-4 {
        fill: none;
        stroke-miterlimit: 10;
        stroke-width: 8px;
      }

      .cls-4 {
        stroke: #4d4d4d;
      }
    </style>
  </defs>
  <!-- Generator: Adobe Illustrator 28.6.0, SVG Export Plug-In . SVG Version: 1.2.0 Build 709)  -->
  <g>
    <g id="_x30_3">
      <g id="character">
        <path d="M268.1,742.7h-9.3c-13.1-15-19.7-33.5-19.7-55.4s6.6-40.8,19.7-56.3h9.4c-13.3,16.1-19.9,34.8-19.9,56.2s6.6,39.7,19.8,55.6"/>
        <path d="M324.2,623.4c-8.6,46-23.7,82.2-42,104.6-1.7-1.7-4.6-4-6.8-5.5,18.3-20.4,33.6-56.7,41.7-103.5l7,4.4Z"/>
        <path d="M437.6,676.5c0,4.4-.6,8.5-1.7,12.5-1.1,4-2.7,7.7-4.7,11.2-2,3.5-4.5,6.7-7.3,9.5-2.9,2.9-6,5.3-9.5,7.3-3.5,2-7.3,3.6-11.3,4.7-4,1.1-8.2,1.7-12.5,1.7s-8.5-.6-12.5-1.7c-4-1.1-7.7-2.7-11.2-4.7-3.5-2-6.7-4.5-9.6-7.3-2.9-2.9-5.3-6-7.4-9.5-2.1-3.5-3.6-7.3-4.8-11.3-1.1-4-1.7-8.2-1.7-12.5s.6-8.5,1.7-12.5c1.1-4,2.7-7.8,4.8-11.3,2.1-3.5,4.5-6.7,7.4-9.5,2.9-2.9,6.1-5.3,9.6-7.4,3.5-2.1,7.2-3.6,11.3-4.8,4-1.1,8.2-1.7,12.5-1.7s8.5.6,12.5,1.7c4,1.1,7.8,2.7,11.3,4.8,3.5,2.1,6.7,4.5,9.5,7.4,2.9,2.9,5.3,6,7.3,9.5,2,3.5,3.6,7.3,4.7,11.3,1.1,4,1.7,8.2,1.7,12.5M390.6,637.3c-3.6,0-7.1.5-10.5,1.4-3.3.9-6.5,2.2-9.4,3.9-2.9,1.7-5.5,3.7-7.9,6.1-2.4,2.4-4.4,5-6.2,7.9-1.7,2.9-3,6-4,9.4-.9,3.3-1.4,6.8-1.4,10.5h39.3v-39.2Z"/>
        <path d="M536.6,649.5c-5.3,37.8-20.9,63.2-54.6,78.9-1.2-1.7-3.6-4.3-5.5-5.7,32-14.6,47-38.4,51-69.7h-60.9v28.2h-7.8v-35.5h78.2l-.5,3.8Z"/>
        <path d="M651.1,676.5c0,4.4-.6,8.5-1.7,12.5-1.1,4-2.7,7.7-4.7,11.2-2,3.5-4.5,6.7-7.3,9.5-2.9,2.9-6,5.3-9.5,7.3-3.5,2-7.3,3.6-11.3,4.7-4,1.1-8.2,1.7-12.5,1.7s-8.5-.6-12.5-1.7c-4-1.1-7.7-2.7-11.2-4.7-3.5-2-6.7-4.5-9.6-7.3-2.9-2.9-5.3-6-7.4-9.5-2.1-3.5-3.6-7.3-4.8-11.3-1.1-4-1.7-8.2-1.7-12.5s.6-8.5,1.7-12.5c1.1-4,2.7-7.8,4.8-11.3,2.1-3.5,4.5-6.7,7.4-9.5,2.9-2.9,6.1-5.3,9.6-7.4,3.5-2.1,7.2-3.6,11.3-4.8,4-1.1,8.2-1.7,12.5-1.7s8.5.6,12.5,1.7c4,1.1,7.8,2.7,11.3,4.8,3.5,2.1,6.7,4.5,9.5,7.4,2.9,2.9,5.3,6,7.3,9.5,2,3.5,3.6,7.3,4.7,11.3,1.1,4,1.7,8.2,1.7,12.5M604,637.3c-3.6,0-7.1.5-10.5,1.4-3.3.9-6.5,2.2-9.4,3.9-2.9,1.7-5.5,3.7-7.9,6.1s-4.4,5-6.2,7.9c-1.7,2.9-3,6-4,9.4-.9,3.3-1.4,6.8-1.4,10.5h39.3v-39.2Z"/>
        <path d="M670.8,742.7h-9.3c13.2-15.8,19.8-34.4,19.8-55.6s-6.6-40.1-19.9-56.2h9.4c13.2,15.5,19.8,34.3,19.8,56.3s-6.6,40.5-19.8,55.4"/>
        <path d="M749.8,623.4c-8.6,46-23.7,82.2-42,104.6-1.7-1.7-4.6-4-6.8-5.5,18.3-20.4,33.6-56.7,41.7-103.5l7,4.4Z"/>
      </g>
      <polygon class="cls-2" points="188.4 235.8 190.1 240.8 179.3 243 186.8 252.6 182.4 255.6 176.2 245.1 170 255.6 165.6 252.6 173.2 243 162.2 240.8 164 235.8 174.4 239.8 173.5 227.7 178.9 227.7 178 239.8 188.4 235.8"/>
      <polygon class="cls-2" points="251.4 161.6 253 166.6 242.2 168.8 249.7 178.4 245.4 181.4 239.2 171 232.9 181.4 228.6 178.4 236.1 168.8 225.2 166.6 226.9 161.6 237.3 165.6 236.4 153.5 241.9 153.5 241 165.6 251.4 161.6"/>
      <path class="cls-2" d="M228.3,281.4c-1.2,0-2.3-.4-3.1-1.3-.9-.9-1.3-1.9-1.3-3.1s.4-2.2,1.3-3.1c.9-.8,1.9-1.3,3.1-1.3s2.3.4,3.2,1.3,1.3,1.9,1.3,3.1-.4,2.3-1.3,3.1-1.9,1.3-3.2,1.3M228.3,314.9c-1.2,0-2.3-.4-3.1-1.3-.9-.9-1.3-1.9-1.3-3.1s.4-2.3,1.3-3.1c.9-.9,1.9-1.3,3.1-1.3s2.3.4,3.2,1.3,1.3,1.9,1.3,3.1-.4,2.3-1.3,3.1-1.9,1.3-3.2,1.3"/>
      <path class="cls-2" d="M282,352.2c0,3.7-3,6.6-6.6,6.6s-6.6-2.9-6.6-6.6,2.9-6.6,6.6-6.6,6.6,3.1,6.6,6.6"/>
      <path class="cls-2" d="M190.1,328c-4,0-7.3-3.3-7.3-7.3s3.3-7.3,7.3-7.3,7.3,3.3,7.3,7.3-3.3,7.3-7.3,7.3ZM190.1,316.5c-2.4,0-4.3,1.9-4.3,4.3s1.9,4.3,4.3,4.3,4.3-1.9,4.3-4.3-1.9-4.3-4.3-4.3Z"/>
      <path class="cls-2" d="M290.9,288l-1.3-2.4c-6-10.9-14.9-19.8-25.8-25.8l-2.4-1.3,2.4-1.3c10.9-6,19.8-14.9,25.8-25.8l1.3-2.4,1.3,2.4c6,10.9,14.9,19.8,25.8,25.8l2.4,1.3-2.4,1.3c-10.9,6-19.8,14.9-25.8,25.8l-1.3,2.4ZM267.5,258.5c9.6,5.7,17.6,13.7,23.3,23.3,5.7-9.6,13.7-17.6,23.3-23.3-9.6-5.7-17.6-13.7-23.3-23.3-5.7,9.6-13.7,17.6-23.3,23.3Z"/>
      <path class="cls-2" d="M290.9,275.9l-1.3-2.4c-3.2-5.8-7.9-10.5-13.7-13.7l-2.4-1.3,2.4-1.3c5.8-3.2,10.5-7.9,13.7-13.7l1.3-2.4,1.3,2.4c3.2,5.8,7.9,10.5,13.7,13.7l2.4,1.3-2.4,1.3c-5.8,3.2-10.5,7.9-13.7,13.7l-1.3,2.4ZM279.5,258.5c4.6,2.9,8.4,6.8,11.3,11.3,2.9-4.6,6.8-8.4,11.3-11.3-4.6-2.9-8.4-6.8-11.3-11.3-2.9,4.6-6.8,8.4-11.3,11.3Z"/>
      <g id="folder">
        <g>
          <polygon points="449.3 327.3 449.3 167.5 513.3 167.5 513.3 179.8 464.1 179.8 464.1 315 513.3 315 513.3 327.2 449.3 327.2 449.3 327.3"/>
          <polygon points="694.9 167.5 694.9 327.3 631 327.3 631 315 680.2 315 680.2 179.8 631 179.8 631 167.5 694.9 167.5"/>
          <polygon points="564.5 285.6 564.6 258.1 543.7 273.1 536.3 260.3 560.7 248.3 536.3 236.3 543.7 223.6 564.6 238.6 564.5 211 579.5 211 579.5 238.6 600.4 223.7 607.9 236.3 583.4 248.3 607.9 260.3 600.4 273.2 579.5 258.1 579.5 285.6 564.5 285.6"/>
        </g>
        <path class="cls-3" d="M508.3,126.6v-49.7h-161.4v271c0,11.1,9,20.1,20.1,20.1h0c11.1,0,20.1-9,20.1-20.1V126.6h369.8v241.5h-389.9"/>
        <line class="cls-4" x1="382.7" y1="100.8" x2="424.5" y2="100.8"/>
        <line class="cls-4" x1="440" y1="100.8" x2="456.5" y2="100.8"/>
      </g>
      <polyline id="connector-bottom" class="cls-4" points="414.7 497.2 519.6 497.2 519.6 386.1"/>
      <polyline id="connector-top" class="cls-4" points="774.5 239.9 811.9 239.9 811.9 390.9"/>
      <g id="monitor-right">
        <rect class="cls-3" x="611.6" y="412.8" width="226.2" height="129.5"/>
        <g>
          <polygon points="654.7 523 654.7 432 691.2 432 691.2 439 663.1 439 663.1 516 691.2 516 691.2 523 654.7 523 654.7 523"/>
          <polygon points="794.6 432 794.6 523 758.2 523 758.2 516.1 786.2 516.1 786.2 439.1 758.2 439.1 758.2 432 794.6 432"/>
          <polygon points="720.4 499.3 720.4 483.6 708.5 492.2 704.3 484.9 718.2 478.1 704.3 471.2 708.5 464 720.4 472.6 720.4 456.8 728.9 456.8 728.9 472.6 740.8 464.1 745 471.2 731.1 478.1 745 484.9 740.8 492.2 728.9 483.6 728.9 499.3 720.4 499.3"/>
        </g>
        <polyline class="cls-3" points="611.6 542.3 611.6 574.3 837.8 574.3 837.8 542.3"/>
        <circle class="cls-1" cx="724.7" cy="558.3" r="7.8"/>
      </g>
      <g id="monitor-left">
        <rect class="cls-3" x="170" y="412.8" width="226.2" height="129.5"/>
        <g>
          <polygon points="213.2 523 213.2 432 249.6 432 249.6 439 221.6 439 221.6 516 249.6 516 249.6 523 213.2 523 213.2 523"/>
          <polygon points="353 432 353 523 316.6 523 316.6 516.1 344.6 516.1 344.6 439.1 316.6 439.1 316.6 432 353 432"/>
          <polygon points="278.8 499.3 278.8 483.6 266.9 492.2 262.7 484.9 276.6 478.1 262.7 471.2 266.9 464 278.8 472.6 278.8 456.8 287.3 456.8 287.3 472.6 299.2 464.1 303.5 471.2 289.5 478.1 303.5 484.9 299.2 492.2 287.3 483.6 287.3 499.3 278.8 499.3"/>
        </g>
        <polyline class="cls-3" points="170 542.3 170 574.3 396.2 574.3 396.2 542.3"/>
        <circle class="cls-1" cx="283.1" cy="558.3" r="7.8"/>
      </g>
    </g>
  </g>
</svg>