<?xml version="1.0" encoding="UTF-8"?>
<svg xmlns="http://www.w3.org/2000/svg" version="1.1" viewBox="0 0 1000 750">
  <defs>
    <style>
      .cls-1 {
        stroke: #000;
      }

      .cls-1, .cls-2, .cls-3, .cls-4, .cls-5 {
        fill: none;
        stroke-miterlimit: 10;
      }

      .cls-1, .cls-4, .cls-5 {
        stroke-width: 8px;
      }

      .cls-6 {
        fill: #333;
      }

      .cls-2, .cls-3 {
        stroke-width: 3px;
      }

      .cls-2, .cls-3, .cls-4 {
        stroke: #333;
      }

      .cls-3 {
        stroke-linecap: round;
      }

      .cls-5 {
        stroke: #4d4d4d;
      }
    </style>
  </defs>
  <!-- Generator: Adobe Illustrator 28.6.0, SVG Export Plug-In . SVG Version: 1.2.0 Build 709)  -->
  <g>
    <g id="_x30_4">
      <g>
        <polyline id="connector-bottom" class="cls-5" points="804.5 591.2 804.5 638.3 668.7 638.3"/>
        <polyline id="connector-top" class="cls-5" points="243.6 301.4 243.6 420.7 804.5 420.7 804.5 467"/>
        <g id="envelope-bottom">
          <rect class="cls-1" x="741.2" y="485.5" width="126.5" height="87.2"/>
          <polyline class="cls-1" points="741.2 485.5 804.5 529.1 867.7 485.5"/>
          <line class="cls-1" x1="817.1" y1="520.4" x2="867.7" y2="572.7"/>
          <line class="cls-1" x1="741.2" y1="572.7" x2="791.8" y2="520.4"/>
        </g>
        <g id="envelope-open">
          <g id="icon">
            <circle class="cls-1" cx="243.6" cy="139.5" r="12.9"/>
            <path class="cls-1" d="M243.6,160.5c-14.4,0-26,11.7-26,26h52.1c0-14.4-11.7-26-26-26Z"/>
          </g>
          <g id="envelope-open-2" data-name="envelope-open">
            <polyline class="cls-4" points="329.8 163.7 243.6 222.9 157.5 163.7"/>
            <line class="cls-4" x1="264.8" y1="208.4" x2="329.8" y2="282.2"/>
            <line class="cls-4" x1="157.5" y1="282.2" x2="222.5" y2="208.4"/>
            <g>
              <polyline class="cls-4" points="276 104.8 184.9 104.8 184.9 182.6"/>
              <line class="cls-4" x1="302.3" y1="184.3" x2="302.3" y2="131.1"/>
            </g>
            <polyline class="cls-4" points="264.1 104.8 243.6 86.4 223.1 104.8"/>
            <polyline class="cls-4" points="184.9 139 157.5 163.7 157.5 282.2 329.8 282.2 329.8 163.7 302.3 139"/>
          </g>
          <g id="plus">
            <circle class="cls-4" cx="302.3" cy="104.8" r="26.3"/>
            <line class="cls-4" x1="302.3" y1="90.8" x2="302.3" y2="118.8"/>
            <line class="cls-4" x1="288.3" y1="104.8" x2="316.3" y2="104.8"/>
          </g>
        </g>
        <g id="sparkles-bottom">
          <polygon class="cls-6" points="718.2 470.6 707.3 472.9 714.9 482.5 710.5 485.5 704.3 475 698.1 485.5 693.7 482.5 701.2 472.9 690.3 470.6 692.1 465.7 702.5 469.6 701.6 457.6 707 457.6 706.1 469.6 716.5 465.7 718.2 470.6"/>
          <path class="cls-6" d="M859.1,605.6c0,3.7-3,6.6-6.6,6.6s-6.6-2.9-6.6-6.6,2.9-6.6,6.6-6.6,6.6,3.1,6.6,6.6"/>
          <circle class="cls-2" cx="857.7" cy="436.7" r="5.8"/>
        </g>
        <g id="sparkles-top">
          <polygon class="cls-6" points="149.6 89.9 138.8 92.1 146.3 101.7 141.9 104.7 135.8 94.2 129.5 104.7 125.1 101.7 132.7 92.1 121.7 89.9 123.5 84.9 133.9 88.8 133 76.8 138.4 76.8 137.5 88.8 148 84.9 149.6 89.9"/>
          <path class="cls-6" d="M189.9,38.4c-1.2,0-2.3-.4-3.1-1.3-.9-.9-1.3-1.9-1.3-3.1s.4-2.2,1.3-3.1c.9-.8,1.9-1.3,3.1-1.3s2.3.4,3.2,1.3c.9.8,1.3,1.9,1.3,3.1s-.4,2.3-1.3,3.1-1.9,1.3-3.2,1.3M189.9,71.9c-1.2,0-2.3-.4-3.1-1.3-.9-.9-1.3-1.9-1.3-3.1s.4-2.3,1.3-3.1c.9-.9,1.9-1.3,3.1-1.3s2.3.4,3.2,1.3,1.3,1.9,1.3,3.1-.4,2.3-1.3,3.1-1.9,1.3-3.2,1.3"/>
          <circle class="cls-2" cx="310.6" cy="13.1" r="5.8"/>
          <g>
            <path class="cls-3" d="M351,23.4h0s0,0,0,0c6.1,11.1,15.2,20.3,26.4,26.4h0s0,0,0,0c-11.1,6.1-20.3,15.2-26.4,26.4h0s0,0,0,0c-6.1-11.1-15.2-20.3-26.4-26.4h0s0,0,0,0c11.1-6.1,20.3-15.2,26.4-26.4Z"/>
            <path class="cls-3" d="M351,35.4h0s0,0,0,0c3.3,6,8.3,11,14.3,14.3h0s0,0,0,0c-6,3.3-11,8.3-14.3,14.3h0s0,0,0,0c-3.3-6-8.3-11-14.3-14.3h0s0,0,0,0c6-3.3,11-8.3,14.3-14.3Z"/>
          </g>
        </g>
        <g id="character-top">
          <g>
            <path d="M150.1,657.7h-9.3c-13.1-15-19.7-33.5-19.7-55.4,0-22.1,6.6-40.8,19.7-56.3h9.4c-13.3,16.1-19.9,34.8-19.9,56.2,0,21.2,6.6,39.7,19.8,55.6"/>
            <path d="M206.2,538.4c-8.6,46-23.7,82.2-42,104.6-1.7-1.7-4.6-4-6.8-5.5,18.3-20.4,33.6-56.7,41.7-103.5l7,4.4Z"/>
            <path d="M319.7,591.5c0,4.4-.6,8.5-1.7,12.5-1.1,4-2.7,7.7-4.7,11.2-2,3.5-4.5,6.7-7.3,9.5-2.9,2.9-6,5.3-9.5,7.3-3.5,2-7.3,3.6-11.3,4.7-4,1.1-8.2,1.7-12.5,1.7-4.4,0-8.5-.6-12.5-1.7-4-1.1-7.7-2.7-11.2-4.7-3.5-2-6.7-4.5-9.6-7.3-2.9-2.9-5.3-6-7.4-9.5-2.1-3.5-3.6-7.3-4.8-11.3-1.1-4-1.7-8.2-1.7-12.5,0-4.3.6-8.5,1.7-12.5,1.1-4,2.7-7.8,4.8-11.3,2.1-3.5,4.5-6.7,7.4-9.5,2.9-2.9,6.1-5.3,9.6-7.4,3.5-2.1,7.2-3.6,11.3-4.8,4-1.1,8.2-1.7,12.5-1.7,4.3,0,8.5.6,12.5,1.7,4,1.1,7.8,2.7,11.3,4.8,3.5,2.1,6.7,4.5,9.5,7.4,2.9,2.9,5.3,6,7.3,9.5,2,3.5,3.6,7.3,4.7,11.3,1.1,4,1.7,8.2,1.7,12.5M272.6,552.2c-3.6,0-7.1.5-10.5,1.4-3.3.9-6.5,2.2-9.4,3.9-2.9,1.7-5.5,3.7-7.9,6.1-2.4,2.4-4.4,5-6.2,7.9-1.7,2.9-3,6-4,9.4-.9,3.3-1.4,6.8-1.4,10.5h39.3s0-39.2,0-39.2Z"/>
            <path d="M418.7,564.5c-5.3,37.8-20.9,63.2-54.6,78.9-1.2-1.7-3.6-4.3-5.5-5.7,32-14.6,47-38.4,51-69.7h-60.9s0,28.2,0,28.2h-7.8s0-35.5,0-35.5h71.3s7,0,7,0l-.5,3.8Z"/>
            <path d="M533.1,591.5c0,4.4-.6,8.5-1.7,12.5-1.1,4-2.7,7.7-4.7,11.2s-4.5,6.7-7.3,9.5c-2.9,2.9-6,5.3-9.5,7.3-3.5,2-7.3,3.6-11.3,4.7-4,1.1-8.2,1.7-12.5,1.7-4.4,0-8.5-.6-12.5-1.7-4-1.1-7.7-2.7-11.2-4.7-3.5-2-6.7-4.5-9.6-7.3-2.9-2.9-5.3-6-7.4-9.5-2.1-3.5-3.6-7.3-4.8-11.3-1.1-4-1.7-8.2-1.7-12.5,0-4.3.6-8.5,1.7-12.5,1.1-4,2.7-7.8,4.8-11.3,2.1-3.5,4.5-6.7,7.4-9.5,2.9-2.9,6.1-5.3,9.6-7.4,3.5-2.1,7.2-3.6,11.3-4.8,4-1.1,8.2-1.7,12.5-1.7,4.3,0,8.5.6,12.5,1.7,4,1.1,7.8,2.7,11.3,4.8s6.7,4.5,9.5,7.4c2.9,2.9,5.3,6,7.3,9.5,2,3.5,3.6,7.3,4.7,11.3,1.1,4,1.7,8.2,1.7,12.5M486.1,552.2c-3.6,0-7.1.5-10.5,1.4-3.3.9-6.5,2.2-9.4,3.9-2.9,1.7-5.5,3.7-7.9,6.1s-4.4,5-6.2,7.9c-1.7,2.9-3,6-4,9.4-.9,3.3-1.4,6.8-1.4,10.5h39.3s0-39.2,0-39.2Z"/>
            <path d="M552.8,657.7h-9.3c13.2-15.8,19.8-34.4,19.8-55.6,0-21.4-6.6-40.1-19.9-56.2h9.4c13.2,15.5,19.8,34.3,19.8,56.3,0,22-6.6,40.5-19.8,55.4"/>
            <path d="M631.8,538.4c-8.6,46-23.7,82.2-42,104.6-1.7-1.7-4.6-4-6.8-5.5,18.3-20.4,33.6-56.7,41.7-103.5l7,4.4Z"/>
          </g>
          <polygon class="cls-6" points="340.9 662.8 389 662.8 364.9 688.7 340.9 662.8"/>
          <polygon class="cls-6" points="364.9 688.7 343.6 721.8 364.9 742.7 386.2 721.8 364.9 688.7"/>
        </g>
        <g id="character-top-2" data-name="character-top">
          <g>
            <path d="M849.9,260.6h9.3c13.1-15,19.7-33.5,19.7-55.4,0-22.1-6.6-40.8-19.7-56.3h-9.4c13.3,16.1,19.9,34.8,19.9,56.2,0,21.2-6.6,39.7-19.8,55.6"/>
            <path d="M793.8,141.3c8.6,46,23.7,82.2,42,104.6,1.7-1.7,4.6-4,6.8-5.5-18.3-20.4-33.6-56.7-41.7-103.5l-7,4.4Z"/>
            <path d="M680.3,194.4c0,4.4.6,8.5,1.7,12.5,1.1,4,2.7,7.7,4.7,11.2,2,3.5,4.5,6.7,7.3,9.5,2.9,2.9,6,5.3,9.5,7.3,3.5,2,7.3,3.6,11.3,4.7,4,1.1,8.2,1.7,12.5,1.7,4.4,0,8.5-.6,12.5-1.7,4-1.1,7.7-2.7,11.2-4.7,3.5-2,6.7-4.5,9.6-7.3,2.9-2.9,5.3-6,7.4-9.5,2.1-3.5,3.6-7.3,4.8-11.3,1.1-4,1.7-8.2,1.7-12.5,0-4.3-.6-8.5-1.7-12.5-1.1-4-2.7-7.8-4.8-11.3-2.1-3.5-4.5-6.7-7.4-9.5-2.9-2.9-6.1-5.3-9.6-7.4-3.5-2.1-7.2-3.6-11.3-4.8-4-1.1-8.2-1.7-12.5-1.7-4.3,0-8.5.6-12.5,1.7-4,1.1-7.8,2.7-11.3,4.8-3.5,2.1-6.7,4.5-9.5,7.4-2.9,2.9-5.3,6-7.3,9.5-2,3.5-3.6,7.3-4.7,11.3-1.1,4-1.7,8.2-1.7,12.5M727.4,155.2c3.6,0,7.1.5,10.5,1.4,3.3.9,6.5,2.2,9.4,3.9,2.9,1.7,5.5,3.7,7.9,6.1,2.4,2.4,4.4,5,6.2,7.9,1.7,2.9,3,6,4,9.4.9,3.3,1.4,6.8,1.4,10.5h-39.3s0-39.2,0-39.2Z"/>
            <path d="M581.3,167.4c5.3,37.8,20.9,63.2,54.6,78.9,1.2-1.7,3.6-4.3,5.5-5.7-32-14.6-47-38.4-51-69.7h60.9s0,28.2,0,28.2h7.8s0-35.5,0-35.5h-71.3s-7,0-7,0l.5,3.8Z"/>
            <path d="M466.9,194.4c0,4.4.6,8.5,1.7,12.5,1.1,4,2.7,7.7,4.7,11.2,2,3.5,4.5,6.7,7.3,9.5,2.9,2.9,6,5.3,9.5,7.3,3.5,2,7.3,3.6,11.3,4.7,4,1.1,8.2,1.7,12.5,1.7s8.5-.6,12.5-1.7c4-1.1,7.7-2.7,11.2-4.7,3.5-2,6.7-4.5,9.6-7.3,2.9-2.9,5.3-6,7.4-9.5,2.1-3.5,3.6-7.3,4.8-11.3,1.1-4,1.7-8.2,1.7-12.5,0-4.3-.6-8.5-1.7-12.5-1.1-4-2.7-7.8-4.8-11.3-2.1-3.5-4.5-6.7-7.4-9.5-2.9-2.9-6.1-5.3-9.6-7.4-3.5-2.1-7.2-3.6-11.3-4.8-4-1.1-8.2-1.7-12.5-1.7-4.3,0-8.5.6-12.5,1.7-4,1.1-7.8,2.7-11.3,4.8-3.5,2.1-6.7,4.5-9.5,7.4-2.9,2.9-5.3,6-7.3,9.5-2,3.5-3.6,7.3-4.7,11.3-1.1,4-1.7,8.2-1.7,12.5M513.9,155.2c3.6,0,7.1.5,10.5,1.4,3.3.9,6.5,2.2,9.4,3.9,2.9,1.7,5.5,3.7,7.9,6.1,2.4,2.4,4.4,5,6.2,7.9,1.7,2.9,3,6,4,9.4.9,3.3,1.4,6.8,1.4,10.5h-39.3s0-39.2,0-39.2Z"/>
            <path d="M447.2,260.6h9.3c-13.2-15.8-19.8-34.4-19.8-55.6,0-21.4,6.6-40.1,19.9-56.2h-9.4c-13.2,15.5-19.8,34.3-19.8,56.3,0,22,6.6,40.5,19.8,55.4"/>
            <path d="M368.2,141.3c8.6,46,23.7,82.2,42,104.6,1.7-1.7,4.6-4,6.8-5.5-18.3-20.4-33.6-56.7-41.7-103.5l-7,4.4Z"/>
          </g>
          <path class="cls-4" d="M550.3,105.4h163.9v-8.9c0-26.7-21.6-48.3-48.3-48.3h0c-26.7,0-48.3,21.6-48.3,48.3v8.9"/>
        </g>
      </g>
    </g>
  </g>
</svg>